<?xml version="1.0" encoding="UTF-8" standalone="no"?>
<!-- Created with Inkscape (http://www.inkscape.org/) -->

<svg
   width="131.2672mm"
   height="79.247993mm"
   viewBox="0 0 131.2672 79.247993"
   version="1.1"
   id="svg1"
   xml:space="preserve"
   inkscape:version="1.4 (e7c3feb100, 2024-10-09)"
   sodipodi:docname="panel_final.svg"
   xmlns:inkscape="http://www.inkscape.org/namespaces/inkscape"
   xmlns:sodipodi="http://sodipodi.sourceforge.net/DTD/sodipodi-0.dtd"
   xmlns="http://www.w3.org/2000/svg"
   xmlns:svg="http://www.w3.org/2000/svg"><sodipodi:namedview
     id="namedview1"
     pagecolor="#ffffff"
     bordercolor="#000000"
     borderopacity="0.25"
     inkscape:showpageshadow="2"
     inkscape:pageopacity="0.0"
     inkscape:pagecheckerboard="0"
     inkscape:deskcolor="#d1d1d1"
     inkscape:document-units="mm"
     inkscape:zoom="0.97134925"
     inkscape:cx="229.06282"
     inkscape:cy="192.00097"
     inkscape:window-width="1920"
     inkscape:window-height="982"
     inkscape:window-x="0"
     inkscape:window-y="36"
     inkscape:window-maximized="1"
     inkscape:current-layer="layer1" /><defs
     id="defs1" /><g
     inkscape:label="Calque 1"
     inkscape:groupmode="layer"
     id="layer1"><path
       style="fill:#000000"
       d="M 0,39.62399 V 0 h 65.633598 65.633592 v 39.62399 39.624 H 65.633598 0 Z m 130.75919,0 V 0.50799 H 65.633598 0.508 v 39.116 39.116 H 65.633598 130.75919 Z M 1.7018,39.47159 V 2.33679 h 21.539199 c 21.522266,0 21.5392,-4e-5 21.5392,-0.0508 0,-0.0567 -4.522782,-0.0512 42.290994,-0.0512 7.83717,0 20.558757,1e-4 28.270197,2.2e-4 l 14.0208,2.1e-4 v 37.1602 37.1602 l -14.02715,2.7e-4 c -7.71493,1.4e-4 -26.614427,10e-5 -41.998892,-1.1e-4 -18.705964,-2.5e-4 -27.97175,0.008 -27.97175,0.0251 0,0.0171 -7.235639,0.0255 -21.831299,0.0255 H 1.7018 Z m 43.078399,0.0127 V 2.84479 H 23.482299 2.1844 v 36.62257 c 0,20.14241 0.0076,36.63018 0.01693,36.63949 0.0093,0.009 9.593368,0.0169 21.297899,0.0169 H 44.780196 Z M 31.291661,71.27153 c -1.060647,-0.1478 -1.932833,-0.95535 -2.133515,-1.97539 l -0.03091,-0.15712 -2.605712,-0.006 -2.605712,-0.006 -1.241178,-1.3589 c -0.682648,-0.7474 -1.286034,-1.40917 -1.340857,-1.4706 l -0.09968,-0.1117 -0.1459,0.10508 c -0.914609,0.6587 -1.974177,1.08551 -3.130399,1.26096 -0.368181,0.0559 -1.159173,0.077 -1.5494,0.0414 -1.69696,-0.1549 -3.194153,-0.85106 -4.370282,-2.0321 -0.564836,-0.56719 -0.948267,-1.09874 -1.30291,-1.80621 -0.37172,-0.74154 -0.589203,-1.46051 -0.706869,-2.3368 -0.05354,-0.39872 -0.03929,-1.3382 0.02689,-1.77213 0.326587,-2.14168 1.511589,-3.92803 3.330575,-5.02073 1.102174,-0.66209 2.268178,-0.98545 3.5687,-0.98968 0.962027,-0.003 1.777869,0.14843 2.622851,0.48726 l 0.308037,0.12352 2.000803,-3.48802 2.000803,-3.48802 h 2.61818 2.618179 l 0.05678,-0.23283 c 0.165507,-0.67863 0.617517,-1.26543 1.228697,-1.59509 0.368987,-0.19903 0.663273,-0.27848 1.099867,-0.29693 0.27025,-0.0114 0.374009,-0.005 0.5715,0.0364 0.504325,0.10522 0.934955,0.33627 1.291753,0.69307 1.188194,1.18819 0.868368,3.19567 -0.632919,3.97269 -0.119606,0.0619 -0.319631,0.14392 -0.4445,0.18227 -0.210695,0.0647 -0.259937,0.0698 -0.684234,0.0711 -0.476721,10e-4 -0.525939,-0.006 -0.895889,-0.14027 -0.747843,-0.27094 -1.374778,-0.99357 -1.546454,-1.7825 l -0.04286,-0.19698 -2.424368,0.006 -2.424368,0.006 -1.866562,3.2512 c -1.026609,1.78816 -1.871799,3.26889 -1.8782,3.29052 -0.0081,0.0275 0.07075,0.0933 0.263033,0.21918 0.151069,0.0989 0.348966,0.238 0.439771,0.30908 l 0.1651,0.12923 0.142254,-0.1452 c 0.07824,-0.0799 0.647991,-0.66813 1.266114,-1.30726 l 1.123861,-1.16205 h 2.594916 2.594917 l 0.04509,-0.2006 c 0.359871,-1.60111 2.145406,-2.42889 3.592829,-1.66564 1.178972,0.62168 1.655698,2.02227 1.109059,3.25832 -0.09871,0.22321 -0.326334,0.54137 -0.525268,0.7342 -0.332116,0.32193 -0.715797,0.53251 -1.179072,0.64713 -0.263758,0.0652 -0.787949,0.0768 -1.036497,0.0229 -0.895684,-0.19439 -1.624852,-0.83828 -1.892416,-1.67108 -0.04129,-0.12852 -0.08248,-0.27997 -0.09153,-0.33655 l -0.01645,-0.10286 h -2.44538 -2.44538 l -1.158082,1.1967 -1.158081,1.1967 0.194461,0.20665 c 0.536212,0.56981 1.02548,1.33015 1.336919,2.07761 l 0.03874,0.093 0.27294,-0.0866 0.272939,-0.0866 h 2.544385 2.544385 l 0.0428,-0.19685 c 0.160386,-0.73771 0.694982,-1.3971 1.394844,-1.72045 1.04786,-0.48414 2.327928,-0.16692 3.022002,0.7489 0.177538,0.23426 0.364655,0.62788 0.440714,0.9271 0.07988,0.31425 0.0905,0.77618 0.02493,1.0852 -0.37086,1.74799 -2.356458,2.55898 -3.849344,1.57221 -0.307579,-0.20331 -0.602924,-0.53045 -0.787019,-0.87175 -0.120083,-0.22262 -0.165911,-0.34278 -0.240275,-0.62996 l -0.0559,-0.2159 -2.474899,-0.005 -2.474898,-0.005 -0.2159,0.0704 c -0.175049,0.0571 -0.215432,0.0798 -0.213429,0.11962 0.0014,0.0271 0.03218,0.18063 0.06849,0.34129 0.195092,0.86326 0.222975,1.81399 0.07896,2.6924 -0.04568,0.2786 -0.162781,0.76489 -0.237877,0.98781 -0.02846,0.0845 -0.05174,0.15879 -0.05174,0.16516 0,0.006 0.119154,0.0582 0.264786,0.1151 l 0.264786,0.10353 H 26.625 29.123815 l 0.05839,-0.2422 c 0.06803,-0.2822 0.261495,-0.68645 0.43786,-0.91493 0.329154,-0.42641 0.779213,-0.729 1.32985,-0.89411 0.252269,-0.0756 0.775085,-0.1052 1.041135,-0.0589 0.813581,0.14168 1.485201,0.63789 1.841858,1.36081 0.436872,0.88551 0.327169,1.89125 -0.291596,2.67331 -0.300112,0.37931 -0.794449,0.70464 -1.283297,0.84455 -0.241443,0.0691 -0.799635,0.097 -1.054022,0.0527 -0.504767,-0.0879 -0.942503,-0.3077 -1.313595,-0.65961 -0.359743,-0.34114 -0.613569,-0.78201 -0.721762,-1.25361 l -0.04516,-0.19685 h -2.545483 -2.545484 l -0.351086,-0.13632 -0.351085,-0.13632 -0.154672,0.29507 c -0.324321,0.61871 -0.68449,1.11149 -1.184022,1.61999 l -0.228617,0.23272 1.240644,1.36095 1.240645,1.36096 2.436798,-0.006 2.436799,-0.006 0.0559,-0.2159 c 0.0674,-0.26029 0.110104,-0.37876 0.202086,-0.56061 0.318811,-0.63031 0.891428,-1.09047 1.599412,-1.28529 0.219754,-0.0605 0.301943,-0.07 0.6096,-0.0708 0.514853,-10e-4 0.838099,0.0844 1.302314,0.34575 0.257267,0.14482 0.661984,0.54264 0.830161,0.81601 0.442412,0.71914 0.500636,1.56765 0.160733,2.34236 -0.244575,0.55745 -0.757869,1.05725 -1.322323,1.28759 -0.382339,0.15601 -0.886912,0.22474 -1.264123,0.17218 z m 0.799515,-1.06102 c 0.431697,-0.15795 0.78311,-0.50838 0.928989,-0.92636 0.06953,-0.19922 0.09408,-0.56843 0.05228,-0.78609 -0.04054,-0.21108 -0.199529,-0.5345 -0.342027,-0.69575 -0.472309,-0.53448 -1.278161,-0.66072 -1.891357,-0.29629 -0.204385,0.12147 -0.462314,0.39337 -0.563722,0.59426 -0.09869,0.19551 -0.17647,0.49646 -0.175898,0.68062 0.0021,0.67357 0.468208,1.28001 1.124631,1.4632 0.200102,0.0558 0.672707,0.0375 0.867105,-0.0336 z m -0.711231,-0.76075 c -0.286478,-0.10247 -0.466433,-0.34994 -0.467588,-0.643 -0.0012,-0.29251 0.126795,-0.50241 0.384865,-0.63137 0.532932,-0.26631 1.140346,0.22805 0.975774,0.79415 -0.113576,0.39069 -0.524946,0.6119 -0.893051,0.48022 z m 0.370885,-0.4003 c 0.13719,-0.071 0.188454,-0.24827 0.113614,-0.39299 -0.0557,-0.10772 -0.135378,-0.15268 -0.270543,-0.15268 -0.09842,0 -0.132595,0.0132 -0.194527,0.0751 -0.09269,0.0927 -0.117447,0.18326 -0.08061,0.29489 0.06077,0.18414 0.25945,0.26491 0.432061,0.17565 z M 17.389661,65.59773 c 0.533825,-0.0258 1.206815,-0.20666 1.756527,-0.47195 0.659412,-0.31823 1.210081,-0.74758 1.677982,-1.30829 1.756427,-2.10482 1.480248,-5.25543 -0.614982,-7.01563 -2.142517,-1.79994 -5.326701,-1.50139 -7.102637,0.66594 -0.716288,0.87415 -1.117752,2.00528 -1.117752,3.14929 0,1.34545 0.518606,2.59346 1.4724,3.5433 0.738135,0.73507 1.643989,1.204 2.679484,1.38708 0.229259,0.0405 0.771243,0.0815 0.915416,0.0692 0.04191,-0.004 0.192013,-0.0121 0.333562,-0.019 z m -0.627243,-3.59661 c -0.529538,-0.0829 -0.99153,-0.50583 -1.128996,-1.03359 -0.0208,-0.0799 -0.03782,-0.23546 -0.03782,-0.34576 0,-0.38944 0.131718,-0.7079 0.4064,-0.98258 0.274682,-0.27468 0.593146,-0.4064 0.98258,-0.4064 0.396484,0 0.689035,0.1217 0.975407,0.40576 0.219906,0.21814 0.332069,0.41857 0.391236,0.69914 0.04711,0.22337 0.04714,0.33506 1.66e-4,0.5588 -0.15381,0.73259 -0.854349,1.21959 -1.58897,1.10463 z m 0.453247,-0.82652 c 0.219504,-0.0915 0.359642,-0.30608 0.360576,-0.55198 9.51e-4,-0.25029 -0.117141,-0.43793 -0.341304,-0.54231 -0.436673,-0.20335 -0.912474,0.15886 -0.840364,0.63972 0.0536,0.35745 0.483431,0.5954 0.821092,0.45457 z m 14.731274,3.78579 c 0.528668,-0.12465 0.970481,-0.5619 1.10938,-1.09793 0.05119,-0.19756 0.05102,-0.52787 -3.84e-4,-0.72711 -0.09774,-0.37885 -0.407237,-0.77714 -0.739162,-0.95121 -0.690891,-0.36232 -1.518527,-0.1596 -1.950923,0.47786 -0.57406,0.84632 -0.161548,1.98454 0.825349,2.27735 0.227522,0.0675 0.523701,0.0757 0.75574,0.021 z M 31.47933,64.18338 c -0.337847,-0.0625 -0.566415,-0.33828 -0.566415,-0.68339 0,-0.28085 0.158638,-0.52648 0.409803,-0.63452 0.158044,-0.068 0.434323,-0.0639 0.583482,0.009 0.237882,0.11567 0.386536,0.35638 0.386536,0.62591 0,0.44031 -0.383914,0.76286 -0.813406,0.68339 z m 0.343483,-0.4942 c 0.07712,-0.0842 0.08427,-0.10462 0.07264,-0.20786 -0.01841,-0.16332 -0.131329,-0.27343 -0.280407,-0.27343 -0.137154,0 -0.238721,0.0653 -0.289457,0.18612 -0.03398,0.0809 -0.03454,0.10664 -0.0042,0.19405 0.07989,0.23041 0.335696,0.28199 0.501455,0.10112 z m 0.08901,-4.01165 c 0.44183,-0.0936 0.835307,-0.40119 1.027131,-0.8029 0.12015,-0.25162 0.157248,-0.41173 0.157248,-0.67865 0,-0.40779 -0.166447,-0.78232 -0.47849,-1.07669 -0.287686,-0.27139 -0.616071,-0.4011 -1.01543,-0.4011 -0.41336,0 -0.759946,0.14543 -1.061186,0.44528 -0.836621,0.83276 -0.405624,2.26053 0.758754,2.51354 0.209155,0.0454 0.39917,0.0456 0.611973,5.2e-4 z m -0.556466,-0.81536 c -0.254322,-0.0903 -0.419468,-0.31836 -0.437841,-0.60464 -0.01483,-0.23111 0.05065,-0.39898 0.214597,-0.5501 0.194357,-0.17915 0.414157,-0.23514 0.651847,-0.16604 0.312113,0.0907 0.510809,0.3529 0.508873,0.67141 -0.0012,0.20055 -0.04525,0.31467 -0.178413,0.46237 -0.186565,0.20694 -0.491394,0.28204 -0.759063,0.187 z m 0.351011,-0.37518 c 0.114117,-0.0483 0.1727,-0.12257 0.188276,-0.2387 0.03548,-0.2645 -0.270319,-0.441 -0.471198,-0.27197 -0.192848,0.16227 -0.143683,0.44946 0.08888,0.51915 0.101061,0.0303 0.102622,0.0302 0.194045,-0.008 z m 0.281775,-4.12058 c 0.45327,-0.11058 0.871202,-0.49812 1.03233,-0.95726 0.07701,-0.21944 0.09605,-0.60954 0.04059,-0.83132 -0.168991,-0.67571 -0.756963,-1.14679 -1.438058,-1.15217 -0.426692,-0.003 -0.767523,0.13643 -1.069105,0.43851 -0.47202,0.47279 -0.58176,1.12799 -0.288683,1.72358 0.161967,0.32914 0.477131,0.61123 0.824005,0.73753 0.295946,0.10775 0.573765,0.12046 0.898924,0.0411 z m -0.596731,-0.78209 c -0.302484,-0.10809 -0.47961,-0.35333 -0.47961,-0.66403 0,-0.36687 0.266582,-0.65773 0.633299,-0.69098 0.524775,-0.0476 0.905208,0.49234 0.689296,0.97829 -0.139951,0.31498 -0.529102,0.48889 -0.842985,0.37672 z m 0.359421,-0.40986 c 0.13719,-0.0709 0.188454,-0.24827 0.113614,-0.39299 -0.053,-0.1025 -0.13463,-0.15268 -0.248358,-0.15268 -0.195789,0 -0.311952,0.11834 -0.306858,0.3126 0.0022,0.0848 0.01938,0.11888 0.09437,0.1876 0.103881,0.0952 0.221318,0.11058 0.347231,0.0455 z m 0.211402,-4.09094 c 0.278843,-0.0716 0.469003,-0.1829 0.69,-0.4039 0.305838,-0.30584 0.444369,-0.63237 0.443591,-1.0456 -0.0018,-0.94048 -0.843547,-1.64599 -1.766609,-1.48063 -0.22721,0.0407 -0.5832,0.223 -0.751778,0.38498 -0.617593,0.59341 -0.632188,1.54071 -0.03302,2.14312 0.193958,0.19501 0.45419,0.34502 0.703092,0.40529 0.188807,0.0457 0.530028,0.0442 0.714722,-0.003 z M 31.457902,48.3126 c -0.229919,-0.0627 -0.408468,-0.21199 -0.495421,-0.41412 -0.113867,-0.26469 -0.03365,-0.61191 0.183773,-0.79544 0.289292,-0.24421 0.715953,-0.21619 0.968166,0.0636 0.13275,0.14725 0.177296,0.26206 0.177852,0.45838 5.17e-4,0.1828 -0.05543,0.3381 -0.171119,0.47495 -0.133842,0.15834 -0.468795,0.26573 -0.663251,0.21266 z m 0.291088,-0.42435 c 0.230579,-0.13621 0.185079,-0.46768 -0.07489,-0.54557 -0.183152,-0.0549 -0.367446,0.0883 -0.367446,0.28557 0,0.22649 0.250153,0.37352 0.442334,0.26 z m 3.379212,21.82204 v -0.1143 h 0.2159 0.2159 v -0.7874 c 0,-0.43307 -0.0086,-0.78695 -0.01905,-0.7864 -0.01048,5.5e-4 -0.119063,0.0219 -0.2413,0.0475 l -0.22225,0.0465 v -0.12317 c 0,-0.138 -0.02777,-0.12062 0.30011,-0.18772 0.102196,-0.0209 0.247929,-0.038 0.32385,-0.038 h 0.13804 v 0.9144 0.9144 h 0.2286 0.2286 v 0.1143 0.1143 h -0.5842 -0.5842 z m 2.367198,0.0839 c 0.0063,-0.0182 0.182081,-0.48212 0.390591,-1.03092 l 0.379111,-0.9978 0.161021,0.007 0.161022,0.007 0.197889,0.5207 c 0.108839,0.28638 0.283824,0.74644 0.388854,1.02235 l 0.190965,0.50165 h -0.144315 -0.144316 l -0.0911,-0.26035 -0.0911,-0.26035 -0.467512,-0.007 -0.467512,-0.007 -0.0912,0.26089 -0.0912,0.26089 -0.146342,0.008 c -0.111646,0.006 -0.14362,-1.4e-4 -0.134862,-0.0254 z m 1.290402,-0.75478 c 0,-0.0185 -0.266269,-0.75375 -0.344691,-0.95177 -0.01382,-0.0349 -0.06595,0.0784 -0.192791,0.4191 -0.09562,0.25681 -0.180302,0.48694 -0.188194,0.51139 -0.01322,0.0409 0.01474,0.0444 0.355664,0.0444 0.205923,0 0.370012,-0.0103 0.370012,-0.0232 z M 35.436484,64.532 c -0.333249,-0.1206 -0.517307,-0.57171 -0.477919,-1.17134 0.02817,-0.42881 0.165057,-0.72036 0.399423,-0.85068 0.09223,-0.0513 0.148282,-0.0629 0.303614,-0.0629 0.155332,0 0.211382,0.0116 0.303614,0.0629 0.238923,0.13286 0.374834,0.42755 0.400503,0.86838 0.03463,0.59478 -0.145956,1.03414 -0.472361,1.14923 -0.130589,0.046 -0.336339,0.048 -0.456874,0.004 z m 0.401727,-0.23131 c 0.159066,-0.0823 0.253958,-0.37641 0.25475,-0.7897 0.0011,-0.55823 -0.146734,-0.84921 -0.431359,-0.84921 -0.286063,0 -0.431827,0.29195 -0.431167,0.8636 4.53e-4,0.39266 0.09659,0.69112 0.249339,0.77409 0.08819,0.0479 0.267001,0.0485 0.358437,0.001 z m 1.017191,0.0502 v -0.1651 h 0.1524 0.1524 v 0.1651 0.1651 h -0.1524 -0.1524 z m 0.9652,0.0508 v -0.1143 h 0.2159 0.2159 v -0.7747 c 0,-0.88117 0.02603,-0.80166 -0.2413,-0.73711 -0.239338,0.0578 -0.2413,0.0571 -0.2413,-0.0835 v -0.12207 l 0.224441,-0.043 c 0.123442,-0.0237 0.294892,-0.043 0.381,-0.043 h 0.156559 v 0.9017 0.9017 h 0.2286 0.2286 v 0.1143 0.1143 h -0.5842 -0.5842 z m 2.365985,0.0937 c 0.0049,-0.0128 0.179919,-0.47107 0.388924,-1.01838 l 0.380009,-0.9951 0.163353,0.007 0.163353,0.007 0.377388,0.99045 c 0.207563,0.54475 0.377388,0.99909 0.377388,1.00965 0,0.0106 -0.06131,0.0192 -0.13624,0.0192 h -0.136239 l -0.08849,-0.24765 -0.08849,-0.24765 -0.468778,-0.007 -0.468777,-0.007 -0.08754,0.2482 -0.08754,0.24819 -0.148615,0.008 c -0.08292,0.004 -0.144674,-0.003 -0.1397,-0.0156 z m 1.291615,-0.74471 c 0,-0.0348 -0.331799,-0.94148 -0.354174,-0.96782 -0.01223,-0.0144 -0.185957,0.43075 -0.376531,0.96478 -0.0087,0.0245 0.07376,0.0318 0.359687,0.0318 0.258893,0 0.371018,-0.009 0.371018,-0.0287 z m -4.1783,-4.49084 c -0.217721,-0.053 -0.386262,-0.2237 -0.475351,-0.48142 -0.05075,-0.14681 -0.05805,-0.21746 -0.05805,-0.56163 0,-0.44856 0.03237,-0.59823 0.173767,-0.80341 0.157373,-0.22836 0.445506,-0.31911 0.737686,-0.23235 0.147328,0.0438 0.325279,0.22854 0.392115,0.40718 0.105446,0.28183 0.127236,0.75565 0.04993,1.08578 -0.03934,0.168 -0.170031,0.40201 -0.264956,0.47441 -0.147765,0.1127 -0.368187,0.15695 -0.555143,0.11144 z m 0.345493,-0.26204 c 0.115867,-0.0768 0.193596,-0.24325 0.22827,-0.48891 0.03354,-0.23765 0.01412,-0.60871 -0.0417,-0.79668 -0.07334,-0.24697 -0.254201,-0.3791 -0.456469,-0.33349 -0.237528,0.0536 -0.342293,0.31272 -0.342293,0.84668 0,0.30174 0.04339,0.53164 0.124512,0.65977 0.108208,0.1709 0.324386,0.22083 0.487681,0.11263 z m -2.517193,0.12069 v -0.1143 h 0.2159 0.2159 v -0.78406 -0.78406 l -0.22225,0.0465 c -0.122238,0.0255 -0.230823,0.0469 -0.2413,0.0475 -0.01048,5.5e-4 -0.01905,-0.0542 -0.01905,-0.12176 v -0.12276 l 0.26035,-0.0553 c 0.143192,-0.0304 0.314642,-0.0552 0.381,-0.055 l 0.12065,2.5e-4 v 0.9144 0.9144 h 0.2286 0.2286 v 0.1143 0.1143 h -0.5842 -0.5842 z m 4.3942,-0.6477 v -0.762 h 0.127 0.127 v 0.0977 0.0977 l 0.101338,-0.0964 c 0.14593,-0.13882 0.330784,-0.1811 0.538962,-0.12329 0.103887,0.0289 0.23998,0.15052 0.27685,0.24749 l 0.02372,0.0624 0.07532,-0.10397 c 0.191977,-0.26502 0.631184,-0.30603 0.823954,-0.0769 0.117543,0.13969 0.141049,0.28599 0.141049,0.87788 v 0.54149 h -0.127 -0.127 v -0.51753 c 0,-0.28464 -0.0072,-0.55365 -0.01606,-0.5978 -0.0088,-0.0442 -0.04771,-0.11417 -0.08639,-0.15558 -0.06034,-0.0646 -0.0889,-0.0753 -0.201104,-0.0753 -0.202279,0 -0.3439,0.097 -0.40413,0.27684 -0.01765,0.0527 -0.02892,0.2778 -0.02892,0.57785 v 0.49151 h -0.127 -0.127 l -6.06e-4,-0.50165 c -6.99e-4,-0.57798 -0.01679,-0.67733 -0.125447,-0.7747 -0.153037,-0.13714 -0.433232,-0.0759 -0.547914,0.11983 -0.06111,0.10428 -0.06263,0.11966 -0.06263,0.6317 v 0.52482 h -0.127 -0.127 z m 2.5146,0.75312 c 0,-0.0137 0.687852,-1.81766 0.744805,-1.95327 0.03981,-0.0948 0.04071,-0.0953 0.190022,-0.0953 h 0.15002 l 0.375981,0.98425 c 0.20679,0.54134 0.381228,1.00425 0.387639,1.0287 0.01007,0.0384 -0.0075,0.0444 -0.129293,0.0444 -0.124002,0 -0.143076,-0.007 -0.158622,-0.0571 -0.0097,-0.0314 -0.05167,-0.1517 -0.09322,-0.26727 l -0.07555,-0.21011 -0.460352,0.007 -0.460353,0.007 -0.09247,0.254 -0.09247,0.254 -0.143073,0.008 c -0.07869,0.004 -0.143072,0.002 -0.143072,-0.004 z m 1.2954,-0.76975 c 0,-0.0132 -0.165382,-0.46841 -0.334339,-0.92034 -0.01248,-0.0334 -0.02818,-0.0552 -0.0349,-0.0485 -0.0067,0.007 -0.08553,0.21119 -0.175135,0.45438 -0.0896,0.24318 -0.170729,0.46215 -0.180284,0.4866 -0.01606,0.0411 0.01061,0.0444 0.353645,0.0444 0.20406,0 0.371018,-0.007 0.371018,-0.0166 z m -8.2042,-4.61887 v -0.1143 h 0.2159 0.2159 v -0.79016 -0.79015 l -0.06985,0.0177 c -0.03842,0.01 -0.147003,0.0325 -0.2413,0.0506 l -0.17145,0.0329 v -0.12357 c 0,-0.13845 -0.02783,-0.121 0.30011,-0.18811 0.102196,-0.0209 0.247929,-0.038 0.32385,-0.038 h 0.13804 v 0.9144 0.9144 h 0.2286 0.2286 v 0.1143 0.1143 h -0.5842 -0.5842 z m 2.5908,-0.6604 v -0.7747 h 0.127 0.127 v 0.11518 0.11519 l 0.07738,-0.0881 c 0.106201,-0.12095 0.262285,-0.17673 0.455482,-0.16275 0.17341,0.0125 0.25892,0.0622 0.353,0.20505 l 0.06037,0.0917 0.119938,-0.12313 c 0.25424,-0.26102 0.665643,-0.23818 0.832841,0.0462 l 0.06949,0.11821 0.008,0.61595 0.008,0.61595 h -0.115969 -0.115935 l -5.11e-4,-0.43815 c -6.52e-4,-0.55894 -0.02545,-0.73964 -0.114206,-0.83229 -0.182328,-0.19031 -0.541295,-0.0627 -0.619886,0.22029 -0.01491,0.0537 -0.02718,0.31196 -0.02726,0.5739 l -1.41e-4,0.47625 h -0.127 -0.127 v -0.54692 c 0,-0.59806 -0.01546,-0.68211 -0.140575,-0.76409 -0.04107,-0.0269 -0.116567,-0.045 -0.18807,-0.045 -0.158044,0 -0.286858,0.0804 -0.355353,0.22195 -0.04788,0.0989 -0.0526,0.15471 -0.0526,0.62134 v 0.51268 h -0.127 -0.127 z m 2.51482,0.76962 c 1.22e-4,-0.004 0.17501,-0.46482 0.388641,-1.02362 l 0.38842,-1.016 h 0.161531 0.161531 l 0.339148,0.889 c 0.186532,0.48895 0.361918,0.94958 0.389747,1.02362 l 0.0506,0.13462 -0.146169,-0.008 -0.146169,-0.008 -0.0889,-0.254 -0.0889,-0.254 h -0.468147 -0.468146 l -0.09107,0.254 -0.09106,0.254 -0.145639,0.008 c -0.0801,0.004 -0.14554,0.004 -0.145419,0 z m 1.273444,-0.87757 c -0.02552,-0.0664 -0.108218,-0.28914 -0.18378,-0.49506 -0.07556,-0.20593 -0.143653,-0.37452 -0.151315,-0.37465 -0.0077,-1.3e-4 -0.06098,0.12835 -0.118494,0.28551 -0.05751,0.15716 -0.139536,0.38005 -0.18228,0.4953 l -0.07772,0.20955 h 0.379991 0.37999 z m -2.010264,-4.88315 v -1.0668 h 0.127 0.127 v 0.53421 c 0,0.56347 0.01389,0.64844 0.121676,0.74443 0.135243,0.12044 0.434907,0.0998 0.550802,-0.0379 0.09747,-0.11584 0.114628,-0.22823 0.11478,-0.75176 l 1.42e-4,-0.48895 h 0.127 0.127 v 0.64459 c 0,0.69075 0.0065,0.72577 0.128226,0.69393 0.04743,-0.0124 0.05158,-0.004 0.04458,0.0923 -0.0072,0.0993 -0.0137,0.10741 -0.103672,0.12963 -0.129106,0.0319 -0.224463,-0.005 -0.275059,-0.10567 l -0.04082,-0.0814 -0.06078,0.0659 c -0.08112,0.088 -0.19967,0.13558 -0.337711,0.13558 -0.141761,0 -0.236589,-0.0351 -0.326319,-0.12067 l -0.06985,-0.0666 v 0.37306 0.37305 h -0.127 -0.127 z m -2.34025,0.43722 c -0.159454,-0.0828 -0.278398,-0.24084 -0.345892,-0.45947 -0.06957,-0.22535 -0.06282,-0.84617 0.01177,-1.08324 0.06352,-0.20188 0.189394,-0.36832 0.334545,-0.44237 0.211805,-0.10805 0.494978,-0.0882 0.682729,0.0478 0.107115,0.0776 0.237796,0.30345 0.280095,0.4841 0.07731,0.33013 0.05551,0.80395 -0.04993,1.08578 -0.143085,0.38243 -0.5609,0.55052 -0.913318,0.36744 z m 0.493541,-0.205 c 0.179055,-0.10422 0.281554,-0.57089 0.227272,-1.03476 -0.04656,-0.39789 -0.185337,-0.59446 -0.419671,-0.59446 -0.284461,0 -0.424692,0.27392 -0.424692,0.82958 0,0.51465 0.100468,0.77944 0.32112,0.84636 0.08792,0.0267 0.200371,0.009 0.295971,-0.0467 z m -2.522091,0.12338 v -0.127 h 0.2159 0.2159 v -0.7747 c 0,-0.6033 -0.007,-0.7745 -0.03175,-0.77381 -0.01746,4.9e-4 -0.106045,0.0172 -0.19685,0.0372 -0.255739,0.0562 -0.254,0.0568 -0.254,-0.084 v -0.12207 l 0.224441,-0.043 c 0.123442,-0.0237 0.294892,-0.043 0.381,-0.043 h 0.156559 v 0.9017 0.9017 h 0.2286 0.2286 v 0.127 0.127 h -0.5842 -0.5842 z m 5.944065,0.12192 c 2.56e-4,-0.004 0.175292,-0.46482 0.388969,-1.02362 l 0.388504,-1.016 0.163481,-0.007 0.163481,-0.007 0.378363,0.99767 c 0.2081,0.54872 0.383866,1.01257 0.390591,1.03078 0.0094,0.0253 -0.02218,0.0313 -0.134115,0.0254 l -0.146342,-0.008 -0.0912,-0.26089 -0.0912,-0.26089 -0.467483,0.007 -0.467482,0.007 -0.09247,0.254 -0.09247,0.254 -0.145546,0.008 c -0.08005,0.004 -0.145337,0.004 -0.145081,0 z m 1.320115,-0.76327 c -1.22e-4,-0.003 -0.08498,-0.23495 -0.188581,-0.51435 -0.180623,-0.48713 -0.189577,-0.50487 -0.217953,-0.4318 -0.01628,0.0419 -0.06743,0.17907 -0.113669,0.3048 -0.04624,0.12573 -0.119226,0.3229 -0.162188,0.43815 l -0.07811,0.20955 h 0.380361 c 0.209199,0 0.380263,-0.003 0.380142,-0.006 z M 30.962409,38.45598 c -0.367357,-0.0467 -0.568858,-0.1804 -0.69843,-0.46342 -0.10171,-0.22217 -0.116102,-0.3949 -0.1085,-1.30227 l 0.007,-0.8382 0.170028,-0.007 0.170027,-0.007 0.0085,0.94728 c 0.0074,0.83052 0.01396,0.96128 0.05308,1.06086 0.09271,0.23596 0.266028,0.3377 0.574826,0.33744 0.309596,-2.5e-4 0.457883,-0.0844 0.564579,-0.32017 0.05807,-0.12835 0.05936,-0.14894 0.06723,-1.07812 l 0.008,-0.94728 0.169777,0.007 0.169777,0.007 -3e-6,0.9271 c -3e-6,1.02288 -0.0072,1.08112 -0.163733,1.32749 -0.165949,0.26117 -0.569041,0.40308 -0.992157,0.3493 z m 2.298893,-0.002 c -0.09779,-0.0118 -0.26924,-0.0475 -0.381,-0.0795 l -0.2032,-0.0581 -0.0075,-0.17145 c -0.0084,-0.19071 -0.0017,-0.19653 0.141873,-0.12351 0.281934,0.14342 0.71248,0.20253 0.964521,0.13244 0.224875,-0.0625 0.357242,-0.25517 0.326994,-0.47585 -0.0326,-0.23787 -0.140908,-0.31307 -0.599909,-0.41657 -0.183388,-0.0414 -0.395373,-0.10448 -0.471078,-0.14029 -0.308465,-0.14593 -0.435757,-0.45936 -0.33022,-0.81311 0.05293,-0.1774 0.164542,-0.29945 0.363211,-0.39716 0.169847,-0.0835 0.170881,-0.0837 0.538846,-0.081 0.281909,0.002 0.407527,0.0141 0.533773,0.0511 l 0.1651,0.0484 0.0075,0.16983 0.0075,0.16984 -0.147181,-0.0593 c -0.222417,-0.0897 -0.407847,-0.12265 -0.631106,-0.11219 -0.346448,0.0162 -0.519374,0.15468 -0.519374,0.41581 0,0.23772 0.101659,0.31353 0.546925,0.40784 0.369543,0.0783 0.536628,0.14201 0.668816,0.25516 0.147935,0.12663 0.212188,0.26357 0.226504,0.48274 0.02069,0.31675 -0.1034,0.55774 -0.352069,0.68375 -0.207337,0.10507 -0.538805,0.14849 -0.848876,0.11121 z m 1.7653,-1.31944 v -1.30202 l 0.56515,0.0144 c 0.647112,0.0164 0.7736,0.0422 0.938933,0.19126 0.134308,0.12109 0.196454,0.25956 0.197159,0.43928 0.001,0.2562 -0.08421,0.41737 -0.267613,0.50615 l -0.115417,0.0559 0.123356,0.0572 c 0.145514,0.0674 0.291031,0.22735 0.332354,0.36527 0.01621,0.0541 0.02948,0.17217 0.02948,0.26234 0,0.30526 -0.184628,0.54848 -0.490071,0.6456 -0.101285,0.0322 -0.27043,0.0449 -0.722779,0.0544 l -0.59055,0.0123 z m 1.220168,0.93416 c 0.259626,-0.13092 0.310298,-0.557 0.08932,-0.75103 -0.113895,-0.1 -0.273188,-0.13162 -0.663035,-0.13162 h -0.31625 v 0.4699 0.4699 h 0.388318 c 0.352187,0 0.398863,-0.005 0.50165,-0.0572 z m -0.02438,-1.23127 c 0.112126,-0.0697 0.150412,-0.14972 0.150412,-0.31423 0,-0.17129 -0.05581,-0.27015 -0.185835,-0.32919 -0.08823,-0.0401 -0.167696,-0.0483 -0.468215,-0.0488 l -0.36195,-5.5e-4 v 0.38328 0.38328 l 0.38735,-0.009 c 0.347636,-0.008 0.396668,-0.0144 0.478238,-0.0652 z M 6.730999,25.90799 v -11.0998 h 8.0899 8.0899 v 11.0998 11.0998 h -8.0899 -8.0899 z m 14.6812,-5e-5 V 16.3067 l -6.59765,0.006 -6.59765,0.006 -0.0064,9.59485 -0.0064,9.59485 h 6.604033 6.604033 z m 11.6459,8.40597 c -1.822617,-0.24569 -3.152787,-1.83948 -3.051376,-3.65612 0.02887,-0.51725 0.130826,-0.89675 0.37189,-1.3843 0.488657,-0.98831 1.429347,-1.68451 2.539786,-1.87968 0.285557,-0.0502 0.86473,-0.0491 1.170274,0.002 1.44493,0.24254 2.624343,1.42684 2.856263,2.86809 0.04709,0.29264 0.05339,0.83344 0.01272,1.09222 -0.231299,1.47172 -1.350342,2.63883 -2.801587,2.92193 -0.252269,0.0492 -0.852826,0.0687 -1.097967,0.0357 z m 0.947316,-1.02655 c 0.919441,-0.19567 1.636359,-0.86689 1.899759,-1.77867 0.09423,-0.32619 0.111954,-0.81724 0.04171,-1.15582 -0.196312,-0.94623 -0.882861,-1.6739 -1.826342,-1.93572 -0.168583,-0.0468 -0.26456,-0.0551 -0.630645,-0.0548 -0.394044,3.6e-4 -0.451789,0.006 -0.6604,0.0685 -0.932646,0.27803 -1.590952,0.99723 -1.79421,1.96019 -0.05472,0.25922 -0.03707,0.77287 0.03622,1.05439 0.119551,0.45922 0.328042,0.82359 0.662827,1.15837 0.604633,0.60464 1.448428,0.85858 2.271083,0.68351 z m -0.858416,-1.09487 c -0.616296,-0.16218 -1.0414,-0.71416 -1.0414,-1.35222 0,-0.38414 0.135753,-0.70525 0.416287,-0.98468 0.20721,-0.2064 0.415794,-0.32109 0.688613,-0.37862 0.332645,-0.0702 0.626222,-0.029 0.933634,0.13095 0.442322,0.23011 0.754584,0.73814 0.754584,1.22767 0,0.61914 -0.451954,1.20123 -1.054547,1.35818 -0.184672,0.0481 -0.51179,0.0475 -0.697171,-10e-4 z m 0.656799,-0.84168 c 0.178331,-0.11025 0.265721,-0.2525 0.27851,-0.45334 0.01362,-0.21391 -0.03971,-0.35611 -0.183132,-0.48831 -0.136871,-0.12617 -0.256741,-0.16612 -0.459629,-0.1532 -0.366739,0.0233 -0.608876,0.36634 -0.520042,0.73665 0.04015,0.16738 0.237022,0.37862 0.393469,0.42221 0.159411,0.0444 0.357186,0.0186 0.490824,-0.064 z m -0.771099,-6.7479 c -0.428548,-0.0625 -0.72834,-0.15663 -1.110448,-0.34866 -0.956342,-0.4806 -1.624653,-1.35245 -1.852755,-2.41702 -0.0738,-0.34441 -0.08034,-1.01073 -0.01322,-1.34629 0.218183,-1.09086 0.925082,-2.01472 1.909626,-2.49572 0.493969,-0.24134 0.972184,-0.34813 1.5494,-0.34601 0.405306,0.001 0.687764,0.0444 1.047974,0.15917 0.70752,0.22545 1.303336,0.65559 1.759424,1.27018 0.296164,0.39909 0.542212,0.98539 0.622239,1.48271 0.04707,0.29255 0.05339,0.83333 0.01275,1.09222 -0.23002,1.46546 -1.325519,2.61408 -2.774869,2.90944 -0.32641,0.0665 -0.844638,0.0845 -1.150121,0.04 z m 0.715407,-0.98267 c 0.494672,-0.0552 0.937939,-0.23715 1.31682,-0.54066 0.413119,-0.33093 0.679658,-0.7367 0.840241,-1.27917 0.09466,-0.31978 0.112171,-0.81073 0.04113,-1.15323 -0.107677,-0.5191 -0.351013,-0.95517 -0.736851,-1.32045 -0.273013,-0.25847 -0.556524,-0.43284 -0.887377,-0.54576 -0.335931,-0.11466 -0.564871,-0.14614 -0.946467,-0.13018 -0.391635,0.0164 -0.634362,0.0777 -0.9779,0.2469 -1.540378,0.7588 -1.879133,2.8011 -0.663642,4.001 0.466339,0.46035 1.031301,0.70627 1.712393,0.74536 0.03198,0.002 0.167728,-0.009 0.301656,-0.0238 z m -0.613807,-1.13963 c -0.225527,-0.0674 -0.316619,-0.11264 -0.491201,-0.24388 -0.315334,-0.23704 -0.507746,-0.60494 -0.530862,-1.01504 -0.01626,-0.28849 0.02035,-0.46723 0.147867,-0.72201 0.113368,-0.2265 0.352642,-0.47343 0.574603,-0.59299 0.162844,-0.0877 0.481998,-0.17104 0.652906,-0.17046 0.655794,0.002 1.240114,0.47558 1.375488,1.11424 0.04541,0.2142 0.04495,0.35235 -0.0019,0.57442 -0.109072,0.51722 -0.525582,0.94667 -1.034511,1.06666 -0.211421,0.0498 -0.504572,0.0452 -0.692411,-0.0109 z m 0.53514,-0.77559 c 0.261024,-0.0779 0.417809,-0.28897 0.416802,-0.5612 -0.0013,-0.34616 -0.244816,-0.59698 -0.581189,-0.59859 -0.352257,-0.002 -0.597381,0.23934 -0.597558,0.58756 -1.44e-4,0.28454 0.163311,0.50093 0.44254,0.58587 0.09978,0.0303 0.184011,0.0268 0.319405,-0.0136 z m -4.61184,-6.29993 v -1.2827 h 0.8128 0.8128 v 0.1397 0.1397 h -0.635 -0.635 v 0.381 0.381 h 0.6096 0.6096 v 0.1524 0.1524 h -0.6096 -0.6096 v 0.4699 0.4699 h 0.6604 0.6604 v 0.1397 0.1397 h -0.8382 -0.8382 z m 2.022609,1.25095 c 0.01045,-0.0175 0.134393,-0.18605 0.275419,-0.37465 0.141026,-0.18859 0.298513,-0.40107 0.34997,-0.47218 l 0.09356,-0.12929 -0.341701,-0.46126 -0.3417,-0.46127 h 0.184372 0.184373 l 0.257828,0.34501 0.257829,0.34501 0.259036,-0.34501 0.259037,-0.34501 h 0.174684 c 0.09608,0 0.174684,0.006 0.174684,0.014 0,0.008 -0.14859,0.21372 -0.3302,0.45782 -0.18161,0.2441 -0.3302,0.4568 -0.3302,0.47268 0,0.0159 0.0609,0.1099 0.135338,0.20894 0.07444,0.099 0.23463,0.31436 0.355987,0.47851 l 0.220649,0.29845 h -0.185921 -0.18592 l -0.271872,-0.3683 c -0.149529,-0.20257 -0.280352,-0.368 -0.290716,-0.36764 -0.01037,3.7e-4 -0.13886,0.1658 -0.285545,0.36764 l -0.2667,0.36697 -0.185649,6.7e-4 c -0.141851,5e-4 -0.181165,-0.007 -0.166642,-0.0311 z m 2.632224,0.002 c -0.137245,-0.0307 -0.271869,-0.15655 -0.308426,-0.28823 -0.01705,-0.0614 -0.02818,-0.34828 -0.02827,-0.72857 l -1.41e-4,-0.62725 -0.12065,-0.008 -0.12065,-0.008 v -0.1143 -0.1143 l 0.12065,-0.008 0.12065,-0.008 V 14.4879 14.22259 h 0.1524 0.1524 v 0.2667 0.2667 h 0.3302 0.3302 v 0.127 0.127 h -0.3302 -0.3302 l 1.41e-4,0.57785 c 1.51e-4,0.61353 0.01867,0.74945 0.108671,0.79761 0.03068,0.0164 0.167344,0.0352 0.303689,0.0418 l 0.247899,0.0119 v 0.12361 0.1236 l -0.26035,-0.003 c -0.143193,-0.001 -0.3088,-0.0136 -0.368017,-0.0268 z m 2.803846,-0.07 c -0.106744,-0.26678 -0.930879,-2.43551 -0.930879,-2.44963 0,-0.009 0.07841,-0.0162 0.174254,-0.0162 h 0.174255 l 0.401648,1.06748 c 0.220907,0.58711 0.410227,1.0586 0.420712,1.04775 0.01049,-0.0109 0.195523,-0.48836 0.411196,-1.06113 l 0.392131,-1.0414 0.183806,-0.008 c 0.101094,-0.004 0.179822,0.003 0.174952,0.0149 -0.0049,0.0123 -0.225492,0.59006 -0.490271,1.28387 l -0.481417,1.26148 H 36.75139 36.556115 Z M 22.195888,8.60198 C 21.820694,8.51788 21.611292,8.21272 21.649329,7.8054 c 0.02081,-0.22289 0.119141,-0.40188 0.279736,-0.50921 0.207366,-0.13858 0.3346,-0.1657 0.835684,-0.17813 l 0.45085,-0.0112 v -0.0699 c 0,-0.19458 -0.156419,-0.40376 -0.351656,-0.47028 -0.229845,-0.0783 -0.649787,-0.0391 -0.935804,0.0874 l -0.10954,0.0485 V 6.52825 6.35392 l 0.121195,-0.0403 c 0.590042,-0.19598 1.144797,-0.13313 1.40933,0.15968 0.219348,0.24279 0.246468,0.39027 0.247034,1.34334 l 4.41e-4,0.74295 h -0.1905 -0.1905 v -0.16 -0.15999 l -0.150027,0.14589 c -0.114927,0.11177 -0.18178,0.1549 -0.28575,0.18436 -0.199063,0.0564 -0.421074,0.0686 -0.583934,0.0321 z m 0.565668,-0.33554 c 0.144094,-0.0508 0.309814,-0.21474 0.378593,-0.37462 0.03104,-0.0721 0.06071,-0.20875 0.06892,-0.3173 l 0.01441,-0.1906 -0.353191,0.0173 c -0.194255,0.01 -0.413886,0.0293 -0.48807,0.0438 -0.245918,0.0484 -0.378849,0.22799 -0.354708,0.47922 0.02267,0.2359 0.203919,0.37965 0.480044,0.38073 0.07857,3.1e-4 0.192871,-0.0171 0.254,-0.0386 z M 18.160999,7.02211 V 5.48463 l 0.307452,0.007 0.307451,0.007 0.382798,1.02235 c 0.210538,0.56229 0.390829,1.02235 0.400645,1.02235 0.0098,0 0.100211,-0.22003 0.200875,-0.48895 0.100664,-0.26892 0.274979,-0.73184 0.387366,-1.0287 l 0.204339,-0.53975 h 0.314237 0.314237 v 1.5367 1.5367 h -0.2032 -0.2032 L 20.57361,7.21948 C 20.573396,6.48256 20.56359,5.89483 20.55181,5.9134 20.54003,5.932 20.360187,6.40367 20.152149,6.96161 l -0.378252,1.01443 -0.213238,-0.007 -0.213238,-0.007 -0.383662,-1.02031 C 18.752745,6.38056 18.571525,5.91288 18.561047,5.90245 c -0.01048,-0.0104 -0.01905,0.583 -0.01905,1.31875 v 1.33774 h -0.1905 -0.1905 z m 6.223,0.38178 v -1.1557 h 0.1905 0.1905 v 1.1557 1.1557 h -0.1905 -0.1905 z m 1.1684,-10e-4 V 6.24608 l 0.18415,0.007 0.18415,0.008 0.0076,0.15981 0.0076,0.1598 0.113814,-0.1171 c 0.283011,-0.2912 0.775114,-0.34903 1.096328,-0.12884 0.14641,0.10036 0.274918,0.33162 0.31193,0.56133 0.01351,0.0838 0.02462,0.49244 0.0247,0.90805 l 1.47e-4,0.75565 h -0.1905 -0.1905 V 7.81173 c 0,-0.43761 -0.01133,-0.80089 -0.02731,-0.87537 -0.03696,-0.17233 -0.115765,-0.28268 -0.252299,-0.35328 -0.09445,-0.0488 -0.142563,-0.0571 -0.279398,-0.0483 -0.251244,0.0163 -0.428813,0.12636 -0.541873,0.33588 -0.05229,0.0969 -0.05518,0.13828 -0.06251,0.89535 l -0.0077,0.79375 h -0.189162 -0.189163 z m -1.1684,-1.80228 v -0.2413 h 0.1905 0.1905 v 0.2413 0.2413 h -0.1905 -0.1905 z M 72.770998,39.39529 V 2.71769 h -13.7033 -13.7033 v 36.6776 36.6776 h 13.7033 13.7033 z m -23.622,35.3949 v -0.2413 h 1.016 1.016 v 0.2413 0.2413 h -1.016 -1.016 z m -0.3556,-1.33372 v -0.25422 l 1.37795,0.007 1.37795,0.007 0.0073,0.24765 0.0073,0.24765 h -1.38522 -1.38522 z m -0.5334,-1.32043 v -0.25415 h 0.8509 0.8509 v -1.07835 -1.07835 l -0.09525,-0.0156 c -0.442653,-0.0725 -0.73357,-0.15924 -1.029532,-0.30706 -1.123775,-0.56127 -1.821413,-1.67897 -1.821413,-2.91814 0,-1.23917 0.697638,-2.35688 1.821413,-2.91815 0.295962,-0.14781 0.586879,-0.23458 1.029532,-0.30706 l 0.09525,-0.0156 v -1.05295 -1.05295 h 2.030444 2.030444 l 0.01335,-0.10795 c 0.0073,-0.0594 0.02,-0.17653 0.02813,-0.26035 0.02598,-0.26796 0.116344,-0.67691 0.218496,-0.98889 0.630188,-1.9246 2.395934,-3.29165 4.41184,-3.41569 0.922777,-0.0568 1.759631,0.11227 2.577469,0.52065 1.538576,0.76828 2.61075,2.35395 2.730791,4.03865 l 0.01793,0.25168 1.873322,0.007 1.873321,0.007 -0.0064,-4.4123 -0.0064,-4.4123 -0.213443,-0.0331 c -0.247712,-0.0384 -0.664819,-0.17255 -0.895813,-0.28803 -0.925281,-0.46256 -1.58393,-1.3496 -1.760113,-2.37046 -0.0495,-0.28684 -0.05001,-0.80915 -0.0011,-1.08989 0.235731,-1.35178 1.283783,-2.40427 2.63547,-2.64663 l 0.24765,-0.0444 v -4.3531 -4.3531 h -1.8288 -1.8288 v -0.2413 -0.2413 h 2.0828 2.0828 v 4.5939 4.59389 l 0.19249,0.0174 c 1.104151,0.10006 2.182368,0.91541 2.615504,1.97786 0.161437,0.396 0.218396,0.66801 0.233284,1.11407 0.02097,0.62814 -0.07998,1.09701 -0.348267,1.61765 -0.477309,0.92627 -1.376074,1.56863 -2.412652,1.72436 l -0.280359,0.0421 v 4.65615 4.65616 h -2.119038 c -1.996772,0 -2.119707,-0.003 -2.130653,-0.0445 -0.0064,-0.0244 -0.01294,0.006 -0.01456,0.0668 -0.0016,0.0612 -0.02079,0.22693 -0.0426,0.3683 -0.350074,2.26936 -2.171538,4.00018 -4.452491,4.23092 -1.499028,0.15164 -3.061016,-0.42551 -4.094326,-1.51283 -0.763755,-0.80368 -1.269304,-1.89123 -1.363724,-2.93368 l -0.01931,-0.21318 -1.797412,-0.007 -1.797412,-0.007 0.0067,0.79351 0.0067,0.79352 0.276795,0.043 c 1.131906,0.17596 2.060454,0.89004 2.508387,1.92904 0.847728,1.96632 -0.420894,4.19929 -2.556582,4.49998 l -0.2286,0.0322 -0.0066,1.07229 -0.0066,1.0723 0.857525,0.007 0.857525,0.007 v 0.2413 0.2413 l -1.94945,0.006 -1.94945,0.007 z m 2.644619,-2.98156 c 0.514677,-0.13056 0.947234,-0.37507 1.303944,-0.73707 0.348419,-0.3536 0.590269,-0.77607 0.718256,-1.2547 0.05871,-0.21955 0.06592,-0.29376 0.06592,-0.67832 0,-0.38456 -0.0072,-0.45877 -0.06592,-0.67833 -0.254188,-0.95057 -0.97434,-1.69115 -1.907435,-1.96155 -0.634251,-0.1838 -1.320398,-0.12996 -1.913501,0.15016 -0.320876,0.15154 -0.490963,0.26884 -0.748627,0.51629 -1.128838,1.08405 -1.128838,2.8628 0,3.94686 0.258225,0.24798 0.42865,0.36538 0.748627,0.5157 0.566182,0.266 1.208703,0.33063 1.798736,0.18096 z m -0.868808,-1.45724 c -0.01448,-0.0384 -0.227299,-0.59563 -0.472926,-1.23825 -0.245627,-0.64262 -0.451998,-1.18841 -0.458602,-1.21285 -0.01059,-0.0392 0.0087,-0.0444 0.163816,-0.0444 h 0.175824 l 0.403624,1.07092 c 0.279058,0.74042 0.410559,1.05985 0.426093,1.03505 0.01236,-0.0197 0.196961,-0.49879 0.41023,-1.06457 l 0.387762,-1.0287 0.182006,-0.007 0.182006,-0.007 -0.04633,0.12177 c -0.02548,0.067 -0.245464,0.64469 -0.488845,1.28382 l -0.442511,1.16205 H 50.26005 c -0.19258,0 -0.198614,-0.002 -0.224237,-0.0699 z m 9.50744,-3.39807 c 1.90397,-0.33305 3.001106,-2.36869 2.234724,-4.14632 -0.276139,-0.64051 -0.868001,-1.24982 -1.484687,-1.52846 -0.900652,-0.40694 -1.91801,-0.36354 -2.749588,0.11729 -0.949972,0.54929 -1.5113,1.5194 -1.5113,2.61191 0,1.44522 1.037814,2.68584 2.4638,2.94528 0.260844,0.0475 0.776625,0.0476 1.047051,3e-4 z m -0.881951,-1.61046 c -0.224337,-0.0671 -0.316566,-0.11261 -0.486065,-0.24003 -0.527581,-0.39659 -0.694925,-1.16016 -0.384157,-1.75288 0.112721,-0.21498 0.395288,-0.49376 0.603522,-0.59543 0.558701,-0.27278 1.178978,-0.17192 1.613209,0.26231 0.766305,0.7663 0.410424,2.06284 -0.641006,2.33529 -0.201644,0.0522 -0.513426,0.0482 -0.705503,-0.009 z m 0.641264,-0.81114 c 0.410702,-0.20952 0.427322,-0.79603 0.02947,-1.04 -0.128923,-0.0791 -0.149267,-0.0837 -0.332132,-0.0761 -0.168619,0.007 -0.2095,0.0184 -0.304199,0.085 -0.06017,0.0423 -0.143332,0.13177 -0.184802,0.19885 -0.170025,0.275 -0.06055,0.67261 0.226434,0.82239 0.184489,0.0963 0.388838,0.0999 0.565228,0.01 z m 9.263614,-10.0403 c 0.553504,-0.0933 1.083478,-0.37909 1.491953,-0.80444 0.247269,-0.25748 0.364535,-0.42746 0.516474,-0.74862 0.46555,-0.98408 0.295366,-2.14425 -0.437563,-2.98294 -0.326674,-0.37381 -0.85817,-0.69884 -1.366542,-0.83569 -0.228802,-0.0616 -0.296837,-0.0684 -0.6858,-0.0684 -0.390912,0 -0.455767,0.007 -0.684907,0.0691 -0.486687,0.13283 -0.894317,0.36662 -1.249548,0.71667 -0.822704,0.81068 -1.046899,2.06244 -0.55545,3.10126 0.151939,0.32116 0.269205,0.49114 0.516473,0.74862 0.640439,0.6669 1.534033,0.95971 2.45491,0.80444 z m -1.643608,-1.46283 c 0.0096,-0.0245 0.229304,-0.59881 0.488328,-1.27635 l 0.470953,-1.2319 0.203024,-0.007 0.203025,-0.007 0.4318,1.13544 c 0.23749,0.62449 0.45718,1.20239 0.4882,1.28423 l 0.0564,0.14879 -0.181952,-0.007 -0.181951,-0.007 -0.115749,-0.3243 -0.115748,-0.32429 -0.5842,0.007 -0.5842,0.007 -0.113558,0.32385 -0.113558,0.32385 h -0.184095 c -0.165014,0 -0.182294,-0.005 -0.166719,-0.0444 z m 1.63203,-0.90633 c 0,-0.0198 -0.432411,-1.18842 -0.454047,-1.22708 -0.01446,-0.0259 -0.09431,0.15961 -0.253434,0.58861 -0.127775,0.3445 -0.232319,0.63155 -0.232319,0.6379 0,0.006 0.211455,0.0115 0.4699,0.0115 0.258445,0 0.4699,-0.005 0.4699,-0.011 z m -10.043173,3.12226 c -0.765586,-0.12495 -1.431042,-0.46093 -1.959408,-0.9893 -1.395476,-1.39548 -1.353646,-3.683 0.09191,-5.02594 0.497895,-0.46256 1.139918,-0.78052 1.799602,-0.89125 0.30627,-0.0514 0.865608,-0.0521 1.160597,-0.001 1.093237,0.18774 2.030566,0.8757 2.530848,1.85755 0.268614,0.52718 0.382803,1.01008 0.380452,1.60891 -0.0036,0.92945 -0.328609,1.72942 -0.975243,2.40077 -0.508526,0.52797 -1.146898,0.87769 -1.854851,1.01614 -0.297524,0.0582 -0.891706,0.0706 -1.173902,0.0246 z m 0.977453,-1.00314 c 0.941244,-0.17619 1.700776,-0.88548 1.958281,-1.82874 0.05069,-0.18567 0.05887,-0.27458 0.05845,-0.635 -4.19e-4,-0.35857 -0.0088,-0.44803 -0.05801,-0.61936 -0.140257,-0.48832 -0.35897,-0.85328 -0.711169,-1.18671 -0.316547,-0.29967 -0.664689,-0.49528 -1.08889,-0.61182 -0.286184,-0.0786 -0.947541,-0.0793 -1.231265,-10e-4 -0.738255,0.20315 -1.336993,0.69648 -1.646011,1.35624 -0.452373,0.96583 -0.265021,2.0651 0.480407,2.81874 0.405061,0.40952 0.889645,0.65374 1.455065,0.73331 0.181341,0.0255 0.579998,0.0126 0.783138,-0.0255 z m -0.80218,-1.1009 c -0.583354,-0.15116 -1.009267,-0.66089 -1.047636,-1.25383 -0.02769,-0.42796 0.109094,-0.79075 0.409851,-1.08698 0.563838,-0.55537 1.412939,-0.55015 1.971285,0.0121 0.711558,0.71655 0.43713,1.92153 -0.5207,2.28632 -0.187498,0.0714 -0.61478,0.0937 -0.8128,0.0424 z m 0.614594,-0.82551 c 0.200256,-0.10216 0.317586,-0.30116 0.317586,-0.53863 0,-0.44142 -0.462567,-0.71702 -0.866019,-0.51597 -0.381265,0.18999 -0.437436,0.70098 -0.107506,0.97797 0.05451,0.0458 0.137547,0.0978 0.184527,0.11566 0.115799,0.044 0.346031,0.0249 0.471412,-0.039 z m -8.621914,0.77035 C 50.251545,50.33827 49.92909,50.00384 49.82,49.53997 c -0.05792,-0.24627 -0.03751,-0.74792 0.03934,-0.96699 0.109879,-0.31323 0.365596,-0.58528 0.652525,-0.69421 0.181129,-0.0688 0.523663,-0.0941 0.719929,-0.0533 0.441737,0.0919 0.765481,0.42717 0.879286,0.91068 0.06079,0.25828 0.03705,0.7238 -0.04874,0.95578 -0.15311,0.414 -0.422442,0.65539 -0.826887,0.74112 -0.206267,0.0437 -0.348425,0.0432 -0.556077,-0.002 z m 0.612501,-0.31814 c 0.356345,-0.1675 0.549426,-0.64375 0.480947,-1.18627 -0.04787,-0.37924 -0.20227,-0.63947 -0.456452,-0.76931 -0.103541,-0.0529 -0.158332,-0.0627 -0.351276,-0.0627 -0.192943,0 -0.247734,0.01 -0.351276,0.0627 -0.327913,0.1675 -0.501407,0.57349 -0.466443,1.09151 0.04149,0.61467 0.376891,0.9655 0.88686,0.92764 0.07994,-0.006 0.195875,-0.0345 0.25764,-0.0636 z m 1.413119,-0.97684 v -1.2827 h 0.1651 0.1651 v 1.12985 1.12986 l 0.62865,0.007 0.62865,0.007 0.0076,0.14605 0.0076,0.14605 h -0.801367 -0.801368 z m 5.935247,-7.45656 c -0.573964,-0.0411 -1.266418,-0.2294 -1.80327,-0.4903 -1.205163,-0.58571 -2.137825,-1.65411 -2.55431,-2.92606 -0.3425,-1.04599 -0.339098,-2.10453 0.01014,-3.15419 0.621671,-1.86849 2.288472,-3.18761 4.275937,-3.384 0.144673,-0.0143 0.273274,-0.026 0.285781,-0.026 0.01336,0 0.02011,-4.29319 0.01636,-10.40764 l -0.0064,-10.40765 -4.894118,-0.006 c -4.839403,-0.006 -4.894294,-0.006 -4.909899,0.0433 -0.02761,0.087 -0.25683,0.27113 -0.380635,0.30579 -0.343125,0.0961 -0.699041,-0.11835 -0.77736,-0.46831 -0.101567,-0.45385 0.332801,-0.85252 0.790362,-0.72541 0.118582,0.0329 0.239679,0.12448 0.333539,0.25211 l 0.07621,0.10362 h 9.419491 c 9.325087,0 9.419649,-5e-4 9.435252,-0.0497 0.02517,-0.0793 0.252622,-0.26817 0.362672,-0.30114 0.353509,-0.10592 0.714741,0.10374 0.794751,0.46126 0.1076,0.48081 -0.384614,0.89563 -0.833561,0.7025 -0.123618,-0.0532 -0.3362,-0.24565 -0.3362,-0.30439 0,-0.0176 -1.385267,-0.026 -4.292631,-0.026 h -4.29263 l 0.0064,10.4199 0.0064,10.41991 0.2413,0.0285 c 1.245774,0.14742 2.425905,0.77727 3.212137,1.71436 1.143396,1.36278 1.490855,3.14361 0.939986,4.81768 -0.562052,1.70807 -2.001164,2.9746 -3.786491,3.33241 -0.225748,0.0452 -0.873102,0.10841 -1.013332,0.0989 -0.02794,-0.002 -0.174574,-0.0123 -0.325853,-0.0232 z m 1.091197,-2.06637 c 0.904803,-0.22267 1.681971,-0.87672 2.046531,-1.72233 0.696217,-1.61489 -0.132173,-3.46929 -1.802473,-4.03494 -0.661735,-0.22409 -1.468381,-0.19522 -2.103356,0.0753 -1.623784,0.69176 -2.308966,2.57616 -1.506501,4.14322 0.420672,0.82149 1.24527,1.43066 2.130555,1.57394 0.104775,0.017 0.207645,0.035 0.2286,0.0401 0.02096,0.005 0.19812,0.005 0.3937,-10e-4 0.265041,-0.008 0.421137,-0.0268 0.612944,-0.074 z m -1.052603,-1.56481 c -0.262667,-0.0688 -0.422698,-0.1624 -0.627913,-0.36723 -0.201472,-0.20109 -0.322032,-0.40789 -0.379217,-0.65049 -0.274121,-1.16293 0.930705,-2.10843 1.9995,-1.56914 0.191082,0.0964 0.48417,0.38336 0.584928,0.57266 0.09006,0.16919 0.170461,0.48459 0.170461,0.66864 0,0.19531 -0.08333,0.50762 -0.181977,0.68206 -0.116221,0.2055 -0.379752,0.45638 -0.585437,0.55732 -0.319433,0.15676 -0.650423,0.19261 -0.980345,0.10618 z m 0.671119,-0.85246 c 0.342556,-0.21346 0.36308,-0.72134 0.03914,-0.96842 -0.309241,-0.23587 -0.721226,-0.13548 -0.908308,0.22132 -0.03196,0.0609 -0.0464,0.14214 -0.04595,0.25826 5.6e-4,0.14278 0.0125,0.1885 0.07606,0.29131 0.184614,0.29861 0.541875,0.38271 0.839058,0.19753 z m 5.5416,-9.04951 c -0.414132,-0.10803 -0.728982,-0.47851 -0.808794,-0.95169 -0.07326,-0.4343 0.01166,-0.90101 0.218616,-1.2015 0.377382,-0.54794 1.282358,-0.62028 1.761812,-0.14082 0.242254,0.24225 0.356797,0.56965 0.357431,1.02164 5.97e-4,0.4263 -0.09869,0.71915 -0.32942,0.9716 -0.280071,0.30645 -0.73788,0.42122 -1.199645,0.30077 z m 0.706226,-0.3151 c 0.298325,-0.15235 0.466956,-0.49854 0.466797,-0.95829 -1.68e-4,-0.48841 -0.165802,-0.83046 -0.475716,-0.9824 -0.12373,-0.0607 -0.176487,-0.0713 -0.348967,-0.0705 -0.241018,0.001 -0.38075,0.0551 -0.530386,0.20492 -0.423201,0.42366 -0.372614,1.44928 0.08647,1.75309 0.16413,0.10862 0.274355,0.13793 0.482017,0.12817 0.142501,-0.007 0.223076,-0.0256 0.319786,-0.075 z m 1.356614,-0.65349 v -0.9652 h 0.1524 0.1524 v 0.1397 c 0,0.0768 0.0057,0.1397 0.01277,0.1397 0.007,0 0.05284,-0.0444 0.101812,-0.0986 0.260362,-0.28819 0.821004,-0.28533 1.031503,0.005 0.134912,0.18624 0.149319,0.28759 0.149319,1.05043 v 0.69389 h -0.150911 -0.150907 l -0.0078,-0.69215 c -0.0073,-0.64003 -0.01178,-0.6998 -0.06011,-0.79375 -0.159632,-0.31028 -0.650542,-0.27047 -0.838006,0.0679 l -0.07492,0.13525 -0.0086,0.64135 -0.0086,0.64135 H 67.10459 66.954432 Z m -14.7955,-1.06928 C 49.73398,25.85646 47.82576,23.8816 47.678243,21.47149 c -0.02193,-0.35828 -0.0013,-0.83807 0.04897,-1.1389 0.269951,-1.61551 1.296415,-2.98386 2.771687,-3.69485 1.58766,-0.76516 3.463886,-0.63634 4.927837,0.33833 1.565419,1.04223 2.414198,2.87656 2.193741,4.74098 -0.245103,2.07286 -1.725664,3.75438 -3.757527,4.26754 -0.522761,0.13202 -1.172385,0.1793 -1.704049,0.12402 z m 1.239367,-2.06363 c 1.064745,-0.27874 1.887875,-1.10174 2.168567,-2.16822 0.08775,-0.33342 0.109636,-0.89728 0.04849,-1.24956 -0.210558,-1.2131 -1.130858,-2.16469 -2.351526,-2.43148 -0.33861,-0.074 -0.973572,-0.0629 -1.297561,0.0228 -0.307269,0.0812 -0.587467,0.19306 -0.811597,0.32396 -1.355365,0.79158 -1.875226,2.49106 -1.192472,3.89834 0.349143,0.71964 0.974766,1.27148 1.73953,1.53436 0.362323,0.12455 0.579463,0.1546 1.0414,0.14415 0.334236,-0.008 0.450574,-0.0208 0.655167,-0.0743 z m -1.067354,-1.55023 c -0.374758,-0.0952 -0.756458,-0.39776 -0.917232,-0.72706 -0.204058,-0.41795 -0.200655,-0.85404 0.0099,-1.27292 0.226125,-0.44979 0.730317,-0.75688 1.245573,-0.75864 0.170908,-5.8e-4 0.490062,0.0827 0.652906,0.17046 0.221961,0.11956 0.461235,0.36649 0.574603,0.59299 0.127522,0.25478 0.164128,0.43352 0.147867,0.72201 -0.03122,0.55386 -0.376255,1.0248 -0.895063,1.22167 -0.215093,0.0816 -0.603765,0.10607 -0.818587,0.0515 z m 0.5946,-0.82493 c 0.211088,-0.10855 0.323914,-0.29571 0.323792,-0.53713 -1.76e-4,-0.34822 -0.245301,-0.58925 -0.597558,-0.58756 -0.664136,0.003 -0.808098,0.95519 -0.175347,1.15956 0.140604,0.0454 0.320096,0.0315 0.449113,-0.0349 z m 12.966599,2.9417 c -1.018396,-0.12825 -1.950322,-0.70851 -2.507215,-1.56113 -0.185971,-0.28472 -0.27983,-0.48093 -0.393279,-0.82212 -0.671276,-2.01884 0.629168,-4.17946 2.730882,-4.53723 0.323725,-0.0551 0.883157,-0.0552 1.1938,-1.3e-4 1.245497,0.22067 2.294788,1.11884 2.700419,2.31148 0.141815,0.41697 0.169874,0.60898 0.168884,1.1557 -8.13e-4,0.44944 -0.0071,0.5201 -0.0681,0.76312 -0.12878,0.51322 -0.322224,0.92486 -0.621402,1.32232 -0.514346,0.68331 -1.251283,1.14706 -2.096482,1.3193 -0.295438,0.0602 -0.829575,0.0837 -1.107508,0.0487 z m 0.935288,-1.03193 c 0.482834,-0.0973 0.869852,-0.31222 1.2446,-0.69125 0.359147,-0.36325 0.534614,-0.66615 0.664583,-1.14725 0.08326,-0.30819 0.08378,-0.87633 0.0011,-1.2053 -0.220704,-0.87811 -0.910477,-1.57587 -1.800331,-1.82117 -0.164685,-0.0454 -0.270845,-0.0551 -0.617946,-0.0566 -0.363041,-0.002 -0.447979,0.006 -0.635,0.0571 -1.390023,0.37947 -2.185238,1.81066 -1.759604,3.16686 0.3387,1.07921 1.386683,1.81331 2.496204,1.74857 0.118745,-0.007 0.301625,-0.0299 0.4064,-0.051 z m -0.8636,-1.09 c -0.498459,-0.13117 -0.916535,-0.56028 -1.0169,-1.04373 -0.04337,-0.20893 -0.01984,-0.59651 0.04749,-0.78207 0.121391,-0.33457 0.378641,-0.61867 0.703469,-0.77689 0.407454,-0.19846 0.820725,-0.19724 1.228166,0.004 0.85998,0.42397 1.042822,1.55432 0.361512,2.23491 -0.184273,0.18408 -0.443151,0.32662 -0.683633,0.3764 -0.182733,0.0378 -0.470765,0.0323 -0.6401,-0.0122 z m 0.517808,-0.78326 c 0.167331,-0.0504 0.278799,-0.14386 0.355866,-0.29851 0.201728,-0.40482 -0.07925,-0.86296 -0.529252,-0.86296 -0.179907,0 -0.327203,0.0652 -0.441966,0.19555 -0.22385,0.25431 -0.211045,0.5768 0.03233,0.81423 0.18226,0.17781 0.350667,0.22162 0.583022,0.15169 z M 51.422298,8.62068 C 51.170007,8.58628 51.020629,8.54598 50.859224,8.46898 50.526742,8.3103 50.26023,7.9725 50.149324,7.56919 c -0.06389,-0.23234 -0.06549,-0.83564 -0.0028,-1.0668 0.111134,-0.40996 0.381834,-0.75992 0.706615,-0.91352 0.477699,-0.22592 1.135905,-0.20018 1.604238,0.0627 l 0.12065,0.0677 V 5.9345 c 0,0.23677 0.0089,0.23145 -0.165143,0.099 C 52.147088,5.83118 51.756822,5.73424 51.419361,5.7867 51.16768,5.8258 51.034412,5.88693 50.874525,6.03648 50.63203,6.26331 50.535536,6.53944 50.534217,7.01033 c -0.0015,0.55051 0.135209,0.88896 0.44361,1.0979 0.404103,0.27379 1.034536,0.22322 1.482778,-0.11893 l 0.119417,-0.0911 -0.0073,0.22284 -0.0073,0.22285 -0.1905,0.0952 c -0.104775,0.0524 -0.255298,0.11151 -0.334497,0.13142 -0.156223,0.0393 -0.495718,0.0668 -0.618003,0.0502 z M 56.31745,8.60898 C 56.25769,8.59718 56.151917,8.55658 56.08239,8.51878 55.853297,8.3941 55.752835,8.19825 55.753246,7.87713 c 2.98e-4,-0.23265 0.06899,-0.40438 0.21197,-0.52991 0.2034,-0.17859 0.331504,-0.21185 0.892682,-0.23174 l 0.4572,-0.0162 -0.0086,-0.1016 C 57.288948,6.78973 57.136437,6.6125 56.924361,6.55359 56.704504,6.49249 56.292882,6.53769 56.025803,6.65219 l -0.12043,0.0516 v -0.1732 -0.1732 l 0.185775,-0.0551 c 0.415458,-0.12333 0.787561,-0.13251 1.071127,-0.0264 0.196752,0.0736 0.366389,0.24203 0.447212,0.44397 0.05865,0.14655 0.06063,0.17527 0.06869,0.99545 l 0.0083,0.84455 H 57.507123 57.327768 V 8.39188 8.22389 L 57.207118,8.3509 C 57.056924,8.50902 56.921932,8.57805 56.700239,8.6101 56.502765,8.6386 56.466993,8.6386 56.31742,8.6091 Z M 56.910498,8.24529 C 57.1381,8.13931 57.278248,7.90476 57.31125,7.5746 c 0.01323,-0.13236 0.009,-0.16231 -0.02448,-0.17518 -0.02224,-0.008 -0.213561,-0.004 -0.425155,0.009 -0.542109,0.0351 -0.671101,0.0995 -0.730717,0.36479 -0.04462,0.19858 0.06183,0.4147 0.244399,0.49619 0.126602,0.0565 0.386844,0.0446 0.5352,-0.0245 z m -3.7229,-1.28573 v -1.6002 h 0.1905 0.1905 v 0.62121 0.62122 l 0.117487,-0.12561 c 0.06462,-0.0691 0.181775,-0.15717 0.26035,-0.19576 0.124624,-0.0612 0.172048,-0.07 0.371463,-0.0691 0.381848,0.002 0.5983,0.14019 0.729695,0.46687 0.05454,0.13558 0.05736,0.17934 0.06522,1.01166 l 0.0082,0.86995 H 54.928995 54.736977 V 7.76423 c 0,-0.9049 -0.0099,-0.96745 -0.177817,-1.11912 C 54.341457,6.44843 53.902002,6.51054 53.718444,6.76393 53.582151,6.95208 53.568577,7.04958 53.568577,7.84051 V 8.5598 h -0.1905 -0.1905 z m 5.2832,0.4445 v -1.1557 h 0.1905 0.1905 v 0.16929 0.16928 l 0.12065,-0.12264 c 0.183898,-0.18693 0.348472,-0.25314 0.630446,-0.25363 0.206558,-3.6e-4 0.245865,0.008 0.379909,0.0761 0.174294,0.0891 0.29496,0.23226 0.359414,0.42631 0.03729,0.11227 0.04529,0.26161 0.05299,0.98948 l 0.0091,0.85725 h -0.190749 -0.190749 l -0.0076,-0.83185 C 60.007909,6.93255 60.005179,6.89165 59.952899,6.7945 59.843709,6.59161 59.685595,6.51194 59.436885,6.53449 59.25728,6.55079 59.109107,6.62469 59.006004,6.74931 58.865665,6.919 58.851877,7.01547 58.851877,7.82781 V 8.5598 h -0.1905 -0.1905 z m 2.7432,0.9017 v -0.254 h 0.2159 0.2159 v 0.254 0.254 h -0.2159 -0.2159 z m 2.296954,0.20955 c 0.0079,-0.0245 0.269967,-0.7131 0.582355,-1.53035 l 0.567978,-1.4859 0.238908,-0.007 0.238908,-0.007 0.578056,1.5185 c 0.317931,0.83517 0.577782,1.52753 0.577448,1.53858 -3.34e-4,0.011 -0.09491,0.0168 -0.210157,0.0127 l -0.20955,-0.007 -0.137045,-0.38775 -0.137045,-0.38775 -0.697949,0.007 -0.697949,0.007 -0.09869,0.2794 c -0.05428,0.15367 -0.116673,0.32798 -0.138657,0.38735 l -0.03997,0.10795 h -0.21551 c -0.193793,0 -0.214062,-0.005 -0.201134,-0.0445 z m 1.944846,-1.09833 c 0,-0.0612 -0.544949,-1.49735 -0.56162,-1.48005 -0.01657,0.0172 -0.55598,1.46686 -0.55598,1.49419 0,0.006 0.25146,0.011 0.5588,0.011 0.352358,0 0.5588,-0.009 0.5588,-0.0252 z M 100.82529,39.39536 V 2.73046 l -13.747747,-0.006 -13.747745,-0.006 v 36.67765 36.67764 l 13.747745,-0.006 13.747747,-0.006 z m -23.634695,35.3949 v -0.2413 h 1.016 1.016 v 0.2413 0.2413 h -1.016 -1.016 z m -0.3556,-1.3335 v -0.254 h 1.3843 1.3843 v 0.254 0.254 h -1.3843 -1.3843 z m -0.5334,-1.3208 v -0.254 h 0.8509 0.8509 v -1.07835 -1.07835 l -0.0953,-0.0151 c -0.62646,-0.099 -1.09454,-0.29141 -1.56035,-0.64138 -1.71225,-1.28644 -1.71225,-3.88116 0,-5.16894 0.46167,-0.34722 0.93009,-0.53963 1.56035,-0.64093 l 0.0953,-0.0153 v -1.05295 -1.05295 h 2.04087 2.04087 l 0.0158,-0.241 c 0.0583,-0.88733 0.4738,-1.93307 1.05364,-2.65173 0.908708,-1.12625 2.189148,-1.79413 3.606908,-1.88135 2.69995,-0.16611 5.01988,1.81553 5.28743,4.51642 0.0143,0.14467 0.0261,0.27326 0.0261,0.28575 0,0.0131 0.792,0.0227 1.87967,0.0227 h 1.87968 l -0.006,-4.41315 -0.006,-4.41314 -0.15188,-0.019 c -1.16471,-0.14549 -2.23995,-1.03981 -2.61516,-2.17515 -0.10501,-0.31774 -0.14551,-0.55478 -0.15894,-0.93029 -0.0332,-0.9286 0.28768,-1.73583 0.95507,-2.40237 0.49259,-0.49196 1.05076,-0.7833 1.7277,-0.90178 l 0.25606,-0.0448 -0.006,-4.34532 -0.006,-4.34531 -1.82245,-0.007 -1.82245,-0.006 v -0.24113 -0.24113 h 2.07003 2.07004 l 0.006,4.59021 0.006,4.5902 0.2413,0.0322 c 0.53912,0.0719 1.07349,0.29301 1.51895,0.62858 0.893,0.67268 1.39285,1.80361 1.27529,2.88538 -0.0341,0.31423 -0.0563,0.41717 -0.15648,0.72725 -0.15813,0.48942 -0.43298,0.92496 -0.8199,1.29926 -0.53534,0.51787 -1.16935,0.8165 -1.92581,0.9071 l -0.14605,0.0175 v 4.65797 4.65798 h -2.11878 c -1.67228,0 -2.12101,-0.007 -2.12937,-0.0318 -0.006,-0.0175 -0.0181,0.0668 -0.0274,0.18725 -0.055,0.71536 -0.36508,1.58855 -0.79718,2.2448 -0.82343,1.25056 -2.18189,2.06907 -3.6866,2.22129 -1.81612,0.18372 -3.62443,-0.67495 -4.642878,-2.20466 -0.44864,-0.67385 -0.7496,-1.5147 -0.81262,-2.27036 l -0.0165,-0.19737 h -1.78705 -1.78705 v 0.79714 0.79714 l 0.17145,0.0182 c 0.90195,0.0959 1.78798,0.63511 2.31712,1.41009 0.21901,0.32076 0.42042,0.80914 0.49992,1.21222 0.0542,0.27479 0.0604,0.87831 0.0118,1.14998 -0.22773,1.27362 -1.17701,2.29504 -2.41612,2.59973 -0.14669,0.0361 -0.33814,0.0731 -0.42545,0.0824 l -0.15875,0.0168 v 1.07622 1.07622 h 0.8509 0.8509 v 0.254 0.254 h -1.9558 -1.9558 z m 2.5527,-2.95679 c 1.05081,-0.22487 1.83267,-0.97461 2.12596,-2.03863 0.0468,-0.16966 0.0548,-0.26606 0.0548,-0.65608 0,-0.39002 -0.008,-0.48643 -0.0548,-0.65609 -0.22636,-0.82121 -0.7369,-1.45261 -1.46135,-1.80732 -1.55964,-0.76364 -3.40242,0.0724 -3.87107,1.75632 -0.064,0.22983 -0.0695,0.28658 -0.0695,0.70709 0,0.4205 0.006,0.47725 0.0695,0.70708 0.30156,1.08352 1.19513,1.8662 2.31006,2.0234 0.21257,0.03 0.67555,0.0115 0.8964,-0.0358 z m -0.79568,-1.54536 c -0.0275,-0.0734 -0.2455,-0.64547 -0.48442,-1.27139 -0.23892,-0.62592 -0.4344,-1.14313 -0.4344,-1.14935 0,-0.006 0.079,-0.0113 0.17558,-0.0113 h 0.17558 l 0.0745,0.19685 c 0.041,0.10826 0.22195,0.58832 0.40213,1.0668 0.18017,0.47847 0.33337,0.86984 0.34043,0.86972 0.007,-1.3e-4 0.16643,-0.40875 0.35415,-0.90805 0.18771,-0.4993 0.36885,-0.97926 0.40252,-1.06657 l 0.0612,-0.15875 h 0.17533 c 0.0964,0 0.17533,0.004 0.17533,0.009 0,0.005 -0.21717,0.57808 -0.4826,1.27413 -0.26543,0.69605 -0.4826,1.2694 -0.4826,1.27412 0,0.005 -0.0906,0.009 -0.20138,0.009 h -0.20137 z m 9.715998,-3.3688 c 1.17939,-0.29696 2.06538,-1.25039 2.25641,-2.42818 0.15293,-0.94286 -0.13707,-1.87285 -0.79848,-2.5606 -0.42876,-0.44584 -0.86985,-0.70065 -1.46285,-0.84508 -1.00923,-0.2458 -2.06589,0.0545 -2.80987,0.79844 -0.69237,0.69237 -1.00138,1.6389 -0.8466,2.59327 0.20242,1.24818 1.17237,2.23725 2.42958,2.47748 0.2761,0.0528 0.95986,0.0331 1.23181,-0.0353 z m -1.07172,-1.57356 c -0.2503,-0.0755 -0.42154,-0.17899 -0.61214,-0.36983 -0.36336,-0.36381 -0.49222,-0.82911 -0.36613,-1.32211 0.0667,-0.26067 0.17642,-0.44825 0.37982,-0.64915 0.54711,-0.5404 1.39952,-0.53576 1.9472,0.0106 0.44624,0.44517 0.54271,1.08279 0.24853,1.64263 -0.15653,0.29787 -0.4155,0.52543 -0.73976,0.65004 -0.23088,0.0887 -0.63046,0.10635 -0.85752,0.0378 z m 0.63811,-0.8126 c 0.34649,-0.17816 0.43717,-0.62264 0.1883,-0.92296 -0.17581,-0.21216 -0.50603,-0.26586 -0.7554,-0.12284 -0.30143,0.17288 -0.38825,0.57932 -0.18398,0.86131 0.17462,0.24106 0.49028,0.3186 0.75108,0.18449 z m 9.33139,-10.05464 c 1.05203,-0.20918 1.85663,-0.98327 2.13668,-2.05564 0.0506,-0.19364 0.0588,-0.28578 0.0578,-0.64501 -0.001,-0.37211 -0.009,-0.44758 -0.0692,-0.6731 -0.0812,-0.30324 -0.29527,-0.74773 -0.47204,-0.98027 -0.71745,-0.94388 -1.97967,-1.32384 -3.09925,-0.93297 -0.69498,0.24264 -1.23476,0.72729 -1.56506,1.40524 -0.52346,1.0744 -0.29061,2.35241 0.57909,3.17836 0.46346,0.44015 1.04331,0.69814 1.69541,0.75433 0.17615,0.0152 0.52563,-0.009 0.7366,-0.0509 z m -1.7018,-1.42652 c 0,-0.0117 0.21568,-0.58605 0.47928,-1.27635 l 0.47927,-1.25508 0.20139,-0.007 0.2014,-0.007 0.48138,1.26112 c 0.26476,0.69362 0.48537,1.27178 0.49024,1.28481 0.005,0.0137 -0.0685,0.0205 -0.17463,0.0162 l -0.18349,-0.008 -0.11429,-0.32431 -0.11429,-0.32431 -0.58414,0.007 -0.58414,0.007 -0.1142,0.32385 -0.11419,0.32385 h -0.1748 c -0.0961,0 -0.17479,-0.01 -0.17479,-0.0213 z m 1.6256,-0.94025 c 0,-0.0322 -0.43522,-1.20695 -0.45546,-1.22941 -0.01,-0.0106 -0.12063,0.26077 -0.24688,0.60298 -0.12625,0.3422 -0.22371,0.62803 -0.21657,0.63517 0.0225,0.0226 0.91891,0.014 0.91891,-0.009 z m -9.8806,3.1554 c -0.6018,-0.0762 -1.14204,-0.27623 -1.62521,-0.60181 -0.24897,-0.16776 -0.66546,-0.57415 -0.8474,-0.82684 -0.59638,-0.8283 -0.802908,-1.86357 -0.57068,-2.86073 0.31602,-1.35703 1.43373,-2.40215 2.82437,-2.64096 0.29672,-0.051 0.85483,-0.05 1.1606,0.002 0.4869,0.0828 1.00133,0.29148 1.41611,0.57457 0.28561,0.19493 0.69942,0.61894 0.9008,0.92299 0.40728,0.61492 0.58576,1.20538 0.58687,1.94155 8.9e-4,0.58557 -0.0969,1.02395 -0.33878,1.5185 -0.48905,0.99998 -1.35731,1.68321 -2.42718,1.90993 -0.24791,0.0525 -0.86874,0.0875 -1.0795,0.0609 z m 0.97171,-1.06138 c 0.44931,-0.11397 0.81924,-0.32598 1.15098,-0.65964 0.42746,-0.42992 0.66274,-0.9308 0.72115,-1.53521 0.11704,-1.21108 -0.67895,-2.33697 -1.87271,-2.64887 -0.24915,-0.0651 -0.71819,-0.0894 -0.97113,-0.0504 -1.06317,0.16418 -1.88239,0.9497 -2.09748,2.01121 -0.0572,0.28208 -0.0389,0.81411 0.0378,1.10267 0.0705,0.26532 0.26908,0.66582 0.44075,0.889 0.16077,0.209 0.45876,0.47416 0.68416,0.60875 0.29857,0.1783 0.71619,0.31898 1.0491,0.35341 0.2124,0.022 0.62604,-0.0123 0.85741,-0.071 z m -0.96856,-1.07097 c -0.72276,-0.1944 -1.17476,-0.941 -1.0052,-1.66039 0.12932,-0.54865 0.59052,-0.98038 1.14175,-1.06881 0.59834,-0.096 1.21062,0.22493 1.47131,0.77113 0.38343,0.80338 -0.0516,1.73846 -0.91149,1.95926 -0.18748,0.0481 -0.51503,0.0476 -0.69637,-10e-4 z m 0.53385,-0.77681 c 0.0541,-0.0162 0.14442,-0.0689 0.20067,-0.11703 0.18153,-0.15538 0.25508,-0.36939 0.20241,-0.58894 -0.0427,-0.17803 -0.14782,-0.31173 -0.30774,-0.39142 -0.40261,-0.20063 -0.86453,0.0738 -0.8672,0.5152 -0.002,0.41424 0.377,0.70049 0.77186,0.58219 z m -8.531618,0.72756 c -0.21698,-0.0471 -0.3865,-0.14524 -0.55349,-0.32031 -0.25013,-0.26224 -0.35558,-0.59748 -0.33454,-1.06357 0.0144,-0.31926 0.0772,-0.53611 0.21876,-0.75506 0.18774,-0.29047 0.48771,-0.45925 0.85868,-0.48314 0.38257,-0.0246 0.66397,0.0688 0.9111,0.30252 0.14953,0.14142 0.29376,0.40798 0.3386,0.62578 0.0402,0.19516 0.0346,0.65394 -0.0101,0.82544 -0.17251,0.6623 -0.75318,1.01515 -1.429,0.86834 z m 0.64739,-0.33172 c 0.29208,-0.14272 0.46256,-0.49346 0.46346,-0.95344 7.6e-4,-0.39074 -0.1111,-0.69946 -0.32008,-0.88341 -0.32172,-0.28319 -0.84477,-0.22936 -1.10872,0.1141 -0.23507,0.30589 -0.28693,0.93276 -0.10931,1.32134 0.19586,0.42847 0.66253,0.60279 1.07465,0.40141 z m 1.37823,-0.96326 v -1.2827 h 0.1778 0.1778 v 1.1303 1.1303 h 0.6223 0.6223 v 0.1524 0.1524 h -0.8001 -0.8001 z m 5.941908,-7.45617 c -0.97973,-0.0705 -2.00193,-0.48087 -2.77842,-1.11536 -1.678608,-1.37164 -2.280768,-3.68686 -1.483338,-5.70327 0.68997,-1.74469 2.296928,-2.94935 4.183588,-3.13624 0.14468,-0.0143 0.27326,-0.0261 0.28575,-0.0261 0.0133,0 0.0227,-4.31105 0.0227,-10.414 v -10.414 h -4.889138 -4.88914 l -0.0643,0.0971 c -0.26417,0.39919 -0.85981,0.36618 -1.06792,-0.0592 -0.27751,-0.56719 0.35382,-1.1375 0.88576,-0.80015 0.0641,0.0406 0.1457,0.12016 0.18142,0.17674 l 0.0649,0.10287 h 9.422428 9.42243 l 0.0365,-0.0699 c 0.13948,-0.26703 0.50825,-0.38397 0.79032,-0.25062 0.47566,0.22487 0.49031,0.86838 0.0254,1.11579 -0.13452,0.0716 -0.41671,0.0755 -0.5461,0.008 -0.11362,-0.0597 -0.22309,-0.16136 -0.26965,-0.25051 l -0.0365,-0.0699 -4.28556,0.006 -4.28556,0.006 v 10.41341 10.4134 l 0.2667,0.031 c 1.42934,0.1662 2.76498,0.9923 3.56176,2.20299 0.95785,1.45544 1.09096,3.31298 0.34997,4.88388 -0.77466,1.64228 -2.355,2.72066 -4.17985,2.85223 -0.1948,0.014 -0.37704,0.024 -0.40498,0.0221 -0.0279,-0.002 -0.17157,-0.0122 -0.31919,-0.0228 z m 1.04309,-2.05299 c 0.85127,-0.19423 1.58475,-0.75633 1.99,-1.52501 0.71903,-1.36389 0.29452,-3.04152 -0.9867,-3.8993 -1.17123,-0.78414 -2.77141,-0.62894 -3.76533,0.36521 -1.02293,1.02318 -1.18734,2.56274 -0.40301,3.77386 0.19329,0.29847 0.61446,0.71345 0.90869,0.89534 0.3565,0.22038 0.8627,0.39943 1.26575,0.4477 0.20006,0.024 0.78077,-0.01 0.9906,-0.0578 z m -0.9652,-1.56683 c -0.24574,-0.0531 -0.4707,-0.17769 -0.662,-0.36671 -0.20665,-0.20418 -0.31418,-0.39051 -0.38346,-0.66446 -0.18668,-0.73823 0.28318,-1.50972 1.02615,-1.6849 0.47019,-0.11085 0.97522,0.0316 1.31006,0.36959 0.54993,0.55507 0.5475,1.42096 -0.005,1.9675 -0.21066,0.20819 -0.36838,0.29903 -0.63972,0.36842 -0.22662,0.058 -0.41197,0.061 -0.64553,0.0106 z m 0.62776,-0.85268 c 0.18418,-0.11383 0.31286,-0.395 0.27446,-0.59969 -0.0567,-0.30235 -0.29145,-0.49916 -0.59742,-0.5009 -0.13635,-7.7e-4 -0.18629,0.0115 -0.28682,0.0706 -0.30728,0.18062 -0.39891,0.56323 -0.20505,0.85618 0.16837,0.25441 0.55199,0.33624 0.81483,0.1738 z m 5.58254,-9.04942 c -0.38517,-0.0954 -0.67904,-0.37905 -0.80116,-0.7732 -0.11425,-0.36874 -0.0846,-0.89264 0.0688,-1.21703 0.093,-0.19656 0.31209,-0.42164 0.49969,-0.51333 0.321,-0.15689 0.757,-0.16047 1.07846,-0.009 0.2889,0.13626 0.52996,0.45725 0.61657,0.82099 0.047,0.19724 0.0401,0.63653 -0.013,0.83638 -0.14989,0.56366 -0.57692,0.8955 -1.14356,0.88866 -0.0983,-0.001 -0.23597,-0.0163 -0.30582,-0.0336 z m 0.56443,-0.28196 c 0.25251,-0.075 0.46946,-0.34449 0.53753,-0.66775 0.04,-0.18995 0.0352,-0.55238 -0.01,-0.72444 -0.11632,-0.4466 -0.37561,-0.66493 -0.78752,-0.6631 -0.16899,7.4e-4 -0.2251,0.0122 -0.33333,0.0682 -0.3552,0.18361 -0.53771,0.64621 -0.46741,1.18472 0.0537,0.411 0.24397,0.69064 0.53952,0.79273 0.16479,0.0569 0.35015,0.0604 0.52085,0.01 z m 1.45487,-0.69946 v -0.96641 l 0.15875,0.008 0.15875,0.008 0.0127,0.13372 0.0127,0.13372 0.0692,-0.0871 c 0.038,-0.0479 0.1319,-0.11776 0.20855,-0.15526 0.11463,-0.0561 0.17357,-0.068 0.33197,-0.0674 0.23003,9e-4 0.37904,0.062 0.49596,0.20336 0.14211,0.1718 0.15876,0.27431 0.17084,1.05182 l 0.011,0.70485 h -0.166 -0.166 l -0.008,-0.70485 c -0.007,-0.65113 -0.0117,-0.71143 -0.0586,-0.7911 -0.07,-0.11891 -0.15748,-0.17742 -0.29236,-0.19563 -0.23372,-0.0316 -0.46573,0.0952 -0.56197,0.30706 -0.0408,0.0898 -0.0463,0.17779 -0.0468,0.74317 l -5.6e-4,0.64135 h -0.1651 -0.1651 z M 80.302095,26.12103 c -0.98059,-0.1028 -1.85386,-0.43559 -2.59094,-0.98738 -0.24763,-0.18537 -0.67824,-0.59776 -0.87566,-0.83859 -0.48008,-0.58563 -0.86471,-1.38641 -1.01263,-2.1082 -0.0795,-0.38767 -0.10547,-0.64886 -0.10547,-1.05891 0,-1.29126 0.48147,-2.49782 1.36884,-3.43028 0.77628,-0.81575 1.78741,-1.33899 2.91106,-1.50644 0.37044,-0.0552 1.05196,-0.0552 1.4224,0 3.169218,0.47228 5.079028,3.70597 3.961848,6.70823 -0.46578,1.25171 -1.45739,2.28936 -2.698608,2.82391 -0.60386,0.26005 -1.18702,0.38529 -1.86014,0.39948 -0.2305,0.005 -0.46482,0.004 -0.5207,-0.002 z m 1.13826,-2.07611 c 1.24714,-0.32647 2.12115,-1.35281 2.252618,-2.64521 0.0924,-0.90795 -0.293388,-1.88764 -0.983178,-2.497 -1.20248,-1.06228 -2.99974,-1.00986 -4.12237,0.12024 -0.91038,0.91643 -1.13525,2.25491 -0.57421,3.41791 0.41918,0.86894 1.21015,1.46842 2.18055,1.65265 0.30207,0.0573 0.93635,0.0326 1.24659,-0.0486 z m -1.06784,-1.55165 c -0.45919,-0.11127 -0.8543,-0.48814 -1.00029,-0.95411 -0.067,-0.21373 -0.0719,-0.56482 -0.0109,-0.77598 0.19493,-0.67515 0.85677,-1.10637 1.54613,-1.00736 0.53762,0.0772 1.00989,0.49254 1.14706,1.00876 0.0536,0.20156 0.0535,0.55687 -2e-4,0.74279 -0.14009,0.48535 -0.52527,0.85883 -1.01455,0.98374 -0.17993,0.0459 -0.48249,0.0469 -0.6672,0.002 z m 0.59176,-0.81695 c 0.36135,-0.17147 0.4522,-0.6319 0.18467,-0.93584 -0.23354,-0.26531 -0.64803,-0.26279 -0.88961,0.005 -0.35318,0.39211 -0.0316,1.0336 0.4936,0.9847 0.0663,-0.006 0.16145,-0.0306 0.21134,-0.0543 z m 13.079218,2.94671 c -0.54893,-0.0789 -0.86813,-0.17067 -1.23505,-0.35495 -0.99506,-0.49975 -1.6777,-1.3989 -1.89304,-2.49346 -0.0618,-0.31395 -0.0607,-0.95308 0.002,-1.27686 0.26402,-1.36094 1.28423,-2.43622 2.61595,-2.75715 0.61747,-0.1488 1.34291,-0.1195 1.93246,0.0781 1.51882,0.50897 2.51226,2.01564 2.37328,3.59936 -0.0776,0.88379 -0.43971,1.64071 -1.0761,2.2491 -0.63277,0.60494 -1.42289,0.9323 -2.31084,0.95744 -0.1829,0.005 -0.36683,0.004 -0.40874,-0.002 z m 0.9271,-1.06698 c 0.69574,-0.17284 1.30438,-0.66649 1.62551,-1.31839 0.16922,-0.34354 0.23051,-0.58626 0.24689,-0.9779 0.016,-0.38159 -0.0155,-0.61053 -0.13017,-0.94646 -0.12693,-0.37187 -0.28658,-0.62049 -0.59923,-0.93314 -0.31265,-0.31265 -0.56126,-0.4723 -0.93313,-0.59922 -0.33593,-0.11466 -0.56487,-0.14614 -0.94647,-0.13018 -0.39163,0.0164 -0.63436,0.0777 -0.9779,0.2469 -0.93545,0.46081 -1.49942,1.47457 -1.38473,2.4891 0.0781,0.69119 0.40274,1.28778 0.9232,1.69681 0.63384,0.49814 1.40168,0.66486 2.17603,0.47248 z m -0.9779,-1.07547 c -0.22433,-0.0671 -0.31656,-0.1126 -0.48606,-0.24002 -0.52659,-0.39585 -0.69223,-1.14436 -0.38707,-1.74915 0.0966,-0.19134 0.38336,-0.48436 0.57279,-0.58519 0.16459,-0.0876 0.48367,-0.1706 0.65366,-0.17002 0.65626,0.002 1.23969,0.47332 1.37457,1.10988 0.0201,0.0948 0.0367,0.23056 0.037,0.30167 5.8e-4,0.16999 -0.0824,0.48907 -0.17002,0.65366 -0.10076,0.1893 -0.39384,0.47623 -0.58493,0.57265 -0.30823,0.15553 -0.70573,0.19746 -1.00991,0.10652 z m 0.6695,-0.8326 c 0.064,-0.0396 0.15093,-0.12115 0.19322,-0.18132 0.0666,-0.0947 0.078,-0.13558 0.085,-0.3042 0.008,-0.18286 0.003,-0.20321 -0.0761,-0.33213 -0.22052,-0.35961 -0.72543,-0.38905 -0.97864,-0.0571 -0.26297,0.34477 -0.10554,0.80661 0.32276,0.94684 0.11739,0.0384 0.32944,0.005 0.45376,-0.0721 z M 79.374975,8.60951 c -0.35689,-0.0491 -0.61554,-0.18096 -0.8483,-0.43236 -0.24232,-0.26174 -0.35984,-0.57362 -0.387,-1.02709 -0.0423,-0.70546 0.24674,-1.30525 0.7501,-1.55678 0.4616,-0.23066 1.1689,-0.20489 1.61918,0.059 l 0.11064,0.0648 v 0.21398 0.21398 l -0.16675,-0.11657 c -0.5118,-0.35777 -1.21293,-0.3404 -1.56765,0.0388 -0.2221,0.23744 -0.30603,0.50318 -0.30589,0.96845 1.9e-4,0.59886 0.18507,0.96201 0.58506,1.14919 0.13501,0.0632 0.20794,0.0796 0.39754,0.0895 0.12949,0.007 0.29471,-8.4e-4 0.37354,-0.0172 0.18149,-0.0377 0.43688,-0.15867 0.5766,-0.27316 l 0.10961,-0.0898 -0.007,0.22479 -0.007,0.22479 -0.1905,0.0949 c -0.31945,0.15908 -0.68772,0.21947 -1.04143,0.17078 z m 4.987148,0 c -0.21595,-0.0427 -0.40655,-0.18594 -0.50565,-0.37995 -0.0282,-0.0552 -0.0495,-0.16592 -0.0561,-0.2921 -0.02,-0.3799 0.14006,-0.62791 0.48469,-0.75102 0.13387,-0.0478 0.2265,-0.058 0.62325,-0.0682 l 0.46601,-0.012 -0.0176,-0.11748 c -0.0295,-0.19666 -0.10848,-0.30466 -0.2921,-0.39937 -0.19827,-0.10227 -0.73069,-0.0673 -0.99013,0.0651 -0.055,0.0281 -0.10674,0.051 -0.11492,0.051 -0.008,0 -0.0115,-0.0771 -0.007,-0.17145 l 0.008,-0.17145 0.16925,-0.0566 c 0.51236,-0.17127 1.0348,-0.12799 1.31125,0.10865 0.1416,0.1212 0.25025,0.35243 0.28374,0.60382 0.0145,0.10928 0.0265,0.50075 0.0265,0.86995 v 0.67126 h -0.1905 -0.1905 V 8.391 8.22232 l -0.10481,0.11908 c -0.12808,0.1455 -0.29443,0.23317 -0.50829,0.26787 -0.18318,0.0297 -0.24458,0.0297 -0.39417,1.5e-4 z m 0.58959,-0.36404 c 0.23837,-0.111 0.37384,-0.33227 0.40809,-0.66658 0.0144,-0.14011 0.0106,-0.16333 -0.0287,-0.17842 -0.0249,-0.01 -0.2206,-0.005 -0.43496,0.009 -0.45551,0.0312 -0.59892,0.0811 -0.67605,0.23556 -0.0654,0.13097 -0.0593,0.35125 0.0129,0.45979 0.13045,0.19631 0.46025,0.26069 0.71876,0.14031 z M 81.229195,6.95956 v -1.6002 h 0.1905 0.1905 v 0.62505 0.62505 l 0.11551,-0.12847 c 0.0674,-0.075 0.17577,-0.15806 0.26035,-0.1996 0.12847,-0.0631 0.17212,-0.071 0.38614,-0.0701 0.29066,0.001 0.4281,0.0563 0.58485,0.23437 0.18641,0.21177 0.20255,0.31367 0.20255,1.27861 v 0.83552 h -0.17564 -0.17565 l -0.008,-0.80645 -0.008,-0.80645 -0.0762,-0.1524 c -0.0617,-0.12347 -0.0977,-0.16325 -0.18953,-0.20955 -0.20839,-0.10508 -0.52622,-0.0553 -0.69528,0.10889 -0.19745,0.19176 -0.22009,0.31329 -0.22009,1.18141 v 0.68455 h -0.1905 -0.1905 z m 5.283198,0.4445 v -1.1557 h 0.1905 0.1905 v 0.17672 0.17671 l 0.11749,-0.1256 c 0.0646,-0.0691 0.18178,-0.15718 0.26035,-0.19577 0.12462,-0.0612 0.17205,-0.07 0.37146,-0.0691 0.35352,0.002 0.55774,0.11527 0.69522,0.38704 0.0902,0.17831 0.10488,0.34108 0.10488,1.16259 V 8.5598 h -0.1905 -0.1905 V 7.76423 c 0,-0.9049 -0.01,-0.96745 -0.17781,-1.11912 -0.21771,-0.19668 -0.65716,-0.13457 -0.84072,0.11882 -0.13629,0.18815 -0.14987,0.28565 -0.14987,1.07658 V 8.5598 h -0.1905 -0.1905 z m 2.7432,0.9017 v -0.254 h 0.2159 0.2159 v 0.254 0.254 h -0.2159 -0.2159 z m 2.667,-1.28479 V 5.48218 l 0.70485,0.01 c 0.65803,0.009 0.71438,0.0133 0.84823,0.0664 0.31114,0.12348 0.46407,0.31208 0.49529,0.6108 0.0368,0.35238 -0.13063,0.63527 -0.4226,0.71389 -0.0576,0.0155 -0.0486,0.0239 0.0954,0.0887 0.17923,0.0806 0.31418,0.21388 0.39627,0.3914 0.0427,0.0924 0.0543,0.16607 0.0543,0.34601 0,0.19876 -0.009,0.24743 -0.0709,0.37291 -0.11087,0.22576 -0.29494,0.36209 -0.5941,0.44001 -0.11184,0.0291 -0.30433,0.038 -0.82627,0.038 h -0.68047 z m 1.44113,1.14746 c 0.15431,-0.0656 0.25049,-0.18656 0.28662,-0.36061 0.0544,-0.26224 -0.0432,-0.53622 -0.22462,-0.63002 -0.11927,-0.0617 -0.3568,-0.0912 -0.73309,-0.0912 h -0.36364 v 0.57393 0.57392 l 0.46355,-0.0101 c 0.37326,-0.008 0.48452,-0.019 0.57118,-0.0558 z m -0.0332,-1.48827 c 0.16059,-0.0814 0.21764,-0.18518 0.21764,-0.39589 0,-0.19785 -0.0653,-0.30368 -0.24133,-0.39098 -0.11667,-0.0579 -0.16146,-0.0638 -0.55242,-0.0728 l -0.42545,-0.01 v 0.47493 0.47493 l 0.43815,-0.008 c 0.40808,-0.008 0.44675,-0.0128 0.56341,-0.072 z m 35.549037,32.7152 V 2.71776 h -13.7541 -13.7541 v 36.6776 36.6776 h 13.7541 13.7541 z m -23.6474,35.3949 v -0.2413 h 1.0287 1.0287 v 0.2413 0.2413 h -1.0287 -1.0287 z m -0.3556,-1.3335 v -0.254 h 1.3843 1.3843 v 0.254 0.254 h -1.3843 -1.3843 z m -0.5334,-1.3208 v -0.254 h 0.8509 0.8509 v -1.0795 c 0,-0.59373 -0.004,-1.0795 -0.009,-1.0795 -0.005,0 -0.10712,-0.0171 -0.22659,-0.0379 -1.15661,-0.2017 -2.12353,-1.01435 -2.51672,-2.11519 -0.23969,-0.67106 -0.23969,-1.49981 0,-2.17087 0.39319,-1.10083 1.36011,-1.91349 2.51672,-2.11518 0.11947,-0.0208 0.22144,-0.0379 0.22659,-0.0379 0.005,0 0.009,-0.47435 0.009,-1.0541 v -1.0541 h 2.0409 2.0409 l 0.0164,-0.23136 c 0.0389,-0.54807 0.221,-1.20114 0.48438,-1.73714 0.26114,-0.53145 0.50393,-0.87873 0.90313,-1.29177 0.77714,-0.80409 1.77134,-1.31355 2.88357,-1.47765 0.37088,-0.0547 1.05331,-0.0543 1.42154,8.9e-4 1.75309,0.26271 3.19037,1.37385 3.89066,3.00782 0.19463,0.45414 0.31681,0.94361 0.36922,1.47917 l 0.0294,0.30084 h 1.87539 1.8754 l -0.006,-4.41315 -0.006,-4.41314 -0.14898,-0.0186 c -0.47835,-0.0597 -1.0657,-0.30257 -1.47654,-0.61043 -0.65186,-0.48846 -1.1159,-1.24343 -1.26057,-2.05087 -0.05,-0.27928 -0.0435,-0.90279 0.0122,-1.1684 0.21489,-1.0237 0.83784,-1.83482 1.75624,-2.28673 0.32298,-0.15893 0.6108,-0.2529 0.93352,-0.3048 l 0.19693,-0.0317 -0.006,-4.34626 -0.006,-4.34625 -1.82245,-0.007 -1.82245,-0.006 v -0.24113 -0.24113 h 2.0701 2.0701 v 4.5855 c 0,3.64674 0.006,4.58731 0.0317,4.59435 0.0175,0.005 0.13147,0.0219 0.25334,0.0379 1.09137,0.14322 2.08019,0.9015 2.52219,1.93416 0.7882,1.84152 -0.28384,3.97208 -2.22882,4.42952 -0.14353,0.0338 -0.3324,0.069 -0.41971,0.0784 l -0.15875,0.017 v 4.65826 4.65826 l -2.12725,0.006 -2.12725,0.007 -0.0188,0.1905 c -0.17642,1.78302 -1.40116,3.39805 -3.09122,4.07629 -2.81396,1.12928 -5.97938,-0.47736 -6.71773,-3.40967 -0.0619,-0.24599 -0.1417,-0.72669 -0.1417,-0.85403 v -0.0666 h -1.7907 -1.7907 v 0.79682 0.79682 l 0.15875,0.0173 c 0.73234,0.08 1.40842,0.40826 1.93675,0.94022 0.38564,0.38828 0.6507,0.8225 0.79943,1.30959 0.12288,0.40245 0.1396,0.51955 0.1396,0.9779 0,0.45834 -0.0167,0.57545 -0.1396,0.9779 -0.24955,0.81727 -0.87244,1.54293 -1.66303,1.9374 -0.32055,0.15994 -0.91301,0.3232 -1.17287,0.3232 h -0.059 v 1.0795 1.0795 h 0.8509 0.8509 v 0.254 0.254 h -1.9558 -1.9558 z m 2.32922,-2.92156 c 0.3109,-0.039 0.57048,-0.11312 0.83531,-0.23857 0.79658,-0.37734 1.36198,-1.08819 1.53718,-1.93257 0.10024,-0.48315 0.0503,-1.09353 -0.12683,-1.55138 -0.1829,-0.47264 -0.5734,-0.97205 -0.9797,-1.25292 -1.22906,-0.84965 -2.88327,-0.59143 -3.77623,0.58946 -0.19626,0.25954 -0.38432,0.64771 -0.47206,0.97437 -0.0601,0.22383 -0.0671,0.29485 -0.0671,0.68167 0,0.38681 0.007,0.45783 0.0671,0.68166 0.13294,0.49496 0.43578,1.00536 0.78737,1.32703 0.60547,0.55395 1.41301,0.8193 2.19496,0.72125 z m -0.99651,-2.70699 c -0.265,-0.69389 -0.48579,-1.27205 -0.49066,-1.2848 -0.005,-0.0131 0.0714,-0.0199 0.17514,-0.0157 l 0.18399,0.008 0.39143,1.0414 c 0.21528,0.57277 0.40017,1.0502 0.41085,1.06097 0.0107,0.0108 0.20047,-0.46073 0.42175,-1.04775 l 0.40232,-1.06732 h 0.17374 c 0.0956,0 0.17351,0.009 0.17323,0.0191 -2.8e-4,0.0105 -0.21635,0.58483 -0.48016,1.27635 l -0.47966,1.2573 -0.20008,0.007 -0.20009,0.007 z m 9.9605,-2.20857 c 1.08983,-0.19005 1.97947,-0.96061 2.33106,-2.01902 0.0486,-0.14617 0.10189,-0.36063 0.11852,-0.47658 0.0435,-0.30314 0.0179,-0.90078 -0.05,-1.17 -0.28124,-1.11472 -1.15133,-1.96663 -2.26279,-2.21551 -1.29906,-0.29088 -2.66641,0.33585 -3.28993,1.50794 -0.61617,1.15828 -0.43298,2.5336 0.46296,3.47578 0.44695,0.47002 1.03081,0.78799 1.64587,0.89635 0.2762,0.0487 0.76843,0.0491 1.04431,0.001 z m -0.84689,-1.59738 c -0.44513,-0.10786 -0.83424,-0.46226 -0.98676,-0.89874 -0.28749,-0.82276 0.25833,-1.71212 1.12863,-1.83896 0.64308,-0.0937 1.26454,0.28177 1.50159,0.9073 0.0719,0.18969 0.0979,0.57826 0.0521,0.77805 -0.17301,0.75425 -0.94594,1.23398 -1.69551,1.05235 z m 0.49068,-0.77953 c 0.24332,-0.0613 0.44259,-0.32812 0.44195,-0.59185 -5e-4,-0.21112 -0.16811,-0.45297 -0.37358,-0.53907 -0.10969,-0.046 -0.34256,-0.0434 -0.45883,0.005 -0.49666,0.20715 -0.47132,0.93611 0.0389,1.11818 0.11872,0.0424 0.20607,0.0442 0.3516,0.008 z m 9.4338,-10.0966 c 0.45044,-0.0804 0.96733,-0.34338 1.33895,-0.68127 0.43149,-0.39234 0.75965,-1.01679 0.8465,-1.61082 0.0455,-0.31138 0.0193,-0.79691 -0.0592,-1.09548 -0.40289,-1.53225 -2.02149,-2.41292 -3.52323,-1.91698 -0.5176,0.17094 -1.00982,0.52721 -1.34823,0.97588 -0.17169,0.22763 -0.36451,0.62552 -0.44376,0.9157 -0.0821,0.30043 -0.11164,0.83332 -0.0631,1.1363 0.19751,1.23284 1.19052,2.17953 2.43003,2.31669 0.23917,0.0265 0.52834,0.0124 0.82205,-0.04 z m -1.7018,-1.4192 c 0,-0.009 0.82009,-2.1671 0.95328,-2.50812 0.0145,-0.037 0.0503,-0.0444 0.21512,-0.0444 0.16476,0 0.20068,0.007 0.21524,0.0444 0.0911,0.23173 0.95316,2.5019 0.95316,2.51011 0,0.006 -0.0788,0.0108 -0.17503,0.0108 h -0.17504 l -0.096,-0.27305 c -0.0528,-0.15018 -0.10519,-0.29877 -0.11643,-0.3302 -0.0204,-0.057 -0.0219,-0.0571 -0.60186,-0.0571 h -0.58142 l -0.0707,0.19685 c -0.0389,0.10827 -0.0927,0.25686 -0.11953,0.3302 l -0.0488,0.13335 h -0.17597 c -0.0968,0 -0.17598,-0.006 -0.17598,-0.0128 z m 1.6256,-0.95558 c 0,-0.041 -0.44197,-1.24037 -0.4572,-1.24064 -0.015,-2.7e-4 -0.4572,1.20036 -0.4572,1.2413 0,0.0193 0.1415,0.0279 0.4572,0.0279 0.32201,0 0.4572,-0.008 0.4572,-0.0286 z m -9.96694,3.1511 c -0.77649,-0.10764 -1.45206,-0.44393 -2.01068,-1.0009 -0.53796,-0.53636 -0.87181,-1.17757 -0.98886,-1.89928 -0.0486,-0.29959 -0.0491,-0.86474 -10e-4,-1.14008 0.21901,-1.25591 1.06651,-2.28014 2.24447,-2.71251 0.43268,-0.15881 0.63176,-0.19101 1.18544,-0.19175 0.54736,-7.2e-4 0.72937,0.0244 1.12247,0.15511 0.85641,0.2847 1.59108,0.9142 2.00256,1.71587 0.15203,0.2962 0.25977,0.59971 0.33194,0.93505 0.0664,0.30864 0.0665,1.01659 1.1e-4,1.3335 -0.14761,0.70488 -0.47103,1.30835 -0.96698,1.8043 -0.64805,0.64804 -1.44405,0.98984 -2.3631,1.01468 -0.20955,0.006 -0.45986,-6.3e-4 -0.55624,-0.014 z m 1.07025,-1.05328 c 0.91592,-0.23234 1.6141,-0.95855 1.8278,-1.90118 0.0583,-0.25735 0.0573,-0.78219 -0.002,-1.04433 -0.27103,-1.19562 -1.32867,-2.01164 -2.54284,-1.96194 -0.95607,0.0391 -1.76506,0.57861 -2.17164,1.44816 -0.33115,0.70824 -0.29697,1.57817 0.0892,2.26862 0.3682,0.65841 1.10009,1.15335 1.85388,1.25369 0.26614,0.0354 0.66158,0.009 0.94581,-0.063 z m -0.99661,-1.07587 c -0.32248,-0.094 -0.62729,-0.31764 -0.80012,-0.58698 -0.52595,-0.81961 -0.0584,-1.91916 0.90172,-2.12075 0.22374,-0.047 0.33543,-0.0469 0.5588,1.7e-4 0.51015,0.10758 0.93469,0.51259 1.06608,1.01705 0.0502,0.19268 0.0496,0.5085 -0.001,0.7062 -0.12238,0.47467 -0.51614,0.86551 -1.00231,0.99489 -0.18679,0.0497 -0.53338,0.0446 -0.72275,-0.0106 z m 0.57746,-0.77907 c 0.12794,-0.0436 0.2759,-0.17243 0.33968,-0.29577 0.15003,-0.29012 -0.003,-0.69452 -0.31122,-0.82338 -0.11143,-0.0466 -0.34375,-0.0443 -0.46068,0.004 -0.4974,0.20746 -0.47209,0.93583 0.0389,1.11817 0.12773,0.0456 0.25259,0.0445 0.39336,-0.003 z m -8.51258,0.74916 c -0.41847,-0.0742 -0.74179,-0.386 -0.8817,-0.85022 -0.0566,-0.18765 -0.0637,-0.67036 -0.0129,-0.87521 0.1429,-0.57673 0.56572,-0.9138 1.14625,-0.9138 0.34725,0 0.61558,0.10929 0.83314,0.33932 0.46187,0.48837 0.47406,1.44967 0.0249,1.96128 -0.24211,0.27575 -0.69128,0.41282 -1.10962,0.33863 z m 0.56643,-0.32462 c 0.23441,-0.10369 0.40926,-0.34644 0.47393,-0.65796 0.0455,-0.21919 0.019,-0.67059 -0.0499,-0.84957 -0.0655,-0.17026 -0.24563,-0.38085 -0.39306,-0.45963 -0.15026,-0.0803 -0.54022,-0.081 -0.68866,-10e-4 -0.32197,0.173 -0.47755,0.50004 -0.47459,0.99764 0.003,0.43785 0.12072,0.71891 0.37817,0.89986 0.20795,0.14615 0.51807,0.1753 0.75413,0.0709 z m 1.41239,-0.98171 v -1.2827 h 0.1778 0.1778 v 1.1303 1.1303 h 0.6223 0.6223 v 0.1524 0.1524 h -0.8001 -0.8001 z m 5.95527,-7.45588 c -0.97198,-0.0655 -1.99126,-0.47228 -2.78027,-1.10948 -0.22367,-0.18064 -0.62534,-0.59059 -0.79093,-0.80724 -0.46907,-0.61369 -0.78853,-1.31149 -0.9517,-2.07875 -0.0894,-0.42052 -0.11354,-1.22723 -0.0499,-1.66775 0.26027,-1.8003 1.44073,-3.30205 3.11407,-3.96164 0.46898,-0.18486 0.93547,-0.2917 1.50417,-0.34449 l 0.17145,-0.0159 V 21.28316 10.87118 h -4.88461 -4.88461 l -0.0789,0.11196 c -0.21903,0.31074 -0.64153,0.35347 -0.92934,0.094 -0.13528,-0.12196 -0.19421,-0.25768 -0.19421,-0.44726 0,-0.19594 0.0606,-0.32884 0.20964,-0.46006 0.28147,-0.24777 0.68416,-0.2042 0.9068,0.0981 l 0.0888,0.12065 h 9.41221 9.4122 l 0.0789,-0.11196 c 0.22315,-0.31659 0.67392,-0.35706 0.94079,-0.0845 0.0579,0.0591 0.12295,0.15003 0.14457,0.20196 0.045,0.10801 0.0508,0.29492 0.0135,0.42939 -0.0378,0.13607 -0.20392,0.3104 -0.35962,0.37738 -0.25964,0.11169 -0.57181,0.0197 -0.7392,-0.21775 l -0.0789,-0.11195 h -4.27501 -4.27501 v 10.42669 10.4267 l 0.0953,10e-5 c 0.0524,6e-5 0.20384,0.0175 0.33655,0.0388 2.11161,0.3388 3.75756,1.95693 4.14594,4.07589 0.0736,0.40153 0.0788,1.28498 0.01,1.6637 -0.10216,0.56085 -0.23937,0.97764 -0.47664,1.4478 -0.68943,1.36611 -1.96223,2.33817 -3.45816,2.64106 -0.26298,0.0532 -0.92855,0.12292 -1.05918,0.11088 -0.0209,-0.002 -0.16429,-0.012 -0.31853,-0.0224 z m 0.83424,-2.01805 c 1.18982,-0.17935 2.15953,-1.06754 2.45828,-2.25165 0.0679,-0.26922 0.0935,-0.86686 0.05,-1.17 -0.11472,-0.79999 -0.61553,-1.57861 -1.31452,-2.0437 -0.72162,-0.48014 -1.64246,-0.61817 -2.49446,-0.37389 -1.31708,0.37761 -2.24069,1.68561 -2.15015,3.04497 0.11858,1.78023 1.69731,3.05858 3.45085,2.79427 z m -0.7627,-1.59906 c -0.68574,-0.15638 -1.17054,-0.84404 -1.07887,-1.53031 0.15439,-1.15573 1.54752,-1.63856 2.36771,-0.8206 0.18064,0.18015 0.32542,0.43935 0.38118,0.68245 0.0484,0.21108 0.0201,0.5884 -0.0599,0.79736 -0.2014,0.52639 -0.67464,0.86969 -1.23618,0.89675 -0.1329,0.006 -0.27667,-0.003 -0.37399,-0.0256 z m 0.6124,-0.85052 c 0.31973,-0.1976 0.38861,-0.61133 0.14849,-0.89186 -0.2123,-0.24802 -0.55307,-0.29002 -0.8148,-0.10043 -0.19989,0.1448 -0.28988,0.47356 -0.19311,0.70557 0.0463,0.11095 0.17063,0.24714 0.27811,0.30459 0.16329,0.0873 0.42415,0.0793 0.58131,-0.0179 z m 5.58085,-9.05898 c -0.43469,-0.1169 -0.74123,-0.47493 -0.82923,-0.96852 -0.0944,-0.52973 0.0298,-1.01837 0.3369,-1.32475 0.26282,-0.26223 0.62358,-0.37316 1.01541,-0.31224 0.25459,0.0396 0.43294,0.12344 0.60145,0.28281 0.26212,0.2479 0.38141,0.56463 0.38291,1.01669 0.001,0.329 -0.0324,0.4977 -0.14497,0.73044 -0.23155,0.47867 -0.81159,0.72371 -1.36247,0.57557 z m 0.58328,-0.27963 c 0.18706,-0.0548 0.39906,-0.26785 0.47969,-0.48206 0.10841,-0.288 0.10903,-0.77091 0.001,-1.05867 -0.0672,-0.17949 -0.22446,-0.35835 -0.39076,-0.44432 -0.10785,-0.0558 -0.16493,-0.0675 -0.33334,-0.0687 -0.173,-0.001 -0.22481,0.009 -0.34859,0.07 -0.34446,0.16914 -0.49494,0.50838 -0.47111,1.06202 0.0164,0.38119 0.0749,0.53886 0.27378,0.73772 0.21435,0.21435 0.47653,0.27548 0.78896,0.18394 z m 1.45211,-0.68983 0.007,-0.95885 0.15875,-0.008 0.15875,-0.008 v 0.14398 0.14397 l 0.10398,-0.10714 c 0.1449,-0.14931 0.28787,-0.20711 0.51449,-0.208 0.36654,-10e-4 0.57078,0.1663 0.6484,0.53252 0.0168,0.0794 0.0285,0.39963 0.0285,0.78105 v 0.64645 h -0.14946 -0.14945 l -0.0111,-0.67945 c -0.0122,-0.74757 -0.0223,-0.80312 -0.16926,-0.92675 -0.17429,-0.14666 -0.50986,-0.10553 -0.67053,0.0822 -0.13358,0.15606 -0.14561,0.23129 -0.14561,0.91101 v 0.613 h -0.1654 -0.16541 z m -14.79972,-1.07572 c -0.7682,-0.081 -1.57568,-0.36975 -2.22433,-0.79554 -1.11007,-0.72868 -1.89495,-1.87643 -2.15518,-3.15159 -0.18964,-0.92923 -0.11117,-1.94691 0.21542,-2.79377 0.79902,-2.0719 2.81364,-3.36035 5.02207,-3.21185 1.55374,0.10447 2.96689,0.93258 3.83346,2.24642 0.53615,0.81289 0.80789,1.73132 0.80789,2.7305 0,1.15428 -0.35412,2.1853 -1.06325,3.09561 -1.03302,1.3261 -2.75767,2.05708 -4.43608,1.88022 z m 1.00887,-2.01651 c 1.15179,-0.20085 2.06225,-1.01983 2.38937,-2.14927 0.44167,-1.52494 -0.44,-3.16748 -1.96281,-3.65672 -1.7135,-0.55049 -3.49912,0.49583 -3.86394,2.26416 -0.0474,0.22981 -0.0529,0.32068 -0.0416,0.68411 0.0141,0.45301 0.0485,0.63191 0.19415,1.00967 0.36089,0.93582 1.25009,1.66422 2.25276,1.84537 0.26636,0.0481 0.7641,0.0494 1.03212,0.003 z m -0.84557,-1.60242 c -0.49722,-0.13084 -0.90182,-0.54822 -1.01663,-1.04874 -0.0458,-0.1998 -0.0198,-0.58836 0.0521,-0.77806 0.30129,-0.79504 1.18282,-1.14415 1.9386,-0.76774 0.34306,0.17086 0.58498,0.45975 0.71736,0.85664 0.0718,0.21531 0.0628,0.59499 -0.0197,0.8281 -0.16094,0.45496 -0.54121,0.80541 -0.98828,0.91079 -0.20264,0.0478 -0.49979,0.0473 -0.68344,-9.9e-4 z M 108.925,21.7064 c 0.16733,-0.0504 0.2788,-0.14386 0.35587,-0.29851 0.19966,-0.40067 -0.0752,-0.86059 -0.51562,-0.86269 -0.25264,-0.001 -0.44732,0.12056 -0.55194,0.34523 -0.15611,0.33524 0.0261,0.7154 0.39692,0.8282 0.0991,0.0302 0.18506,0.0268 0.31477,-0.0122 z m 13.07119,2.90575 c -0.84913,-0.11836 -1.55008,-0.47233 -2.12235,-1.07175 -0.48168,-0.50454 -0.79224,-1.1146 -0.91531,-1.79804 -0.0594,-0.32988 -0.0587,-0.90022 0.002,-1.2192 0.24189,-1.28095 1.13901,-2.31294 2.3503,-2.7036 0.466,-0.15029 0.90181,-0.20217 1.37732,-0.16394 0.79931,0.0643 1.52366,0.38455 2.10372,0.93023 1.15188,1.08361 1.43863,2.77215 0.70803,4.16926 -0.48819,0.93354 -1.37975,1.60301 -2.40923,1.80907 -0.28125,0.0563 -0.85411,0.0814 -1.09404,0.048 z m 0.6604,-0.99004 c 0.84532,-0.0972 1.56094,-0.57599 1.94242,-1.29951 0.18583,-0.35244 0.25528,-0.58345 0.29065,-0.96673 0.0424,-0.45938 -0.0403,-0.89677 -0.25105,-1.32801 -0.3065,-0.62716 -0.86205,-1.08942 -1.56292,-1.30047 -0.21146,-0.0637 -0.26193,-0.0688 -0.6731,-0.0682 -0.40728,5.8e-4 -0.46287,0.006 -0.66392,0.0678 -0.30425,0.0931 -0.47922,0.17446 -0.71826,0.33395 -0.49899,0.33295 -0.87736,0.85803 -1.03538,1.43686 -0.0513,0.18809 -0.0587,0.27151 -0.0572,0.6477 0.002,0.51216 0.0411,0.69092 0.23826,1.0922 0.38638,0.78626 1.17118,1.3205 2.04599,1.39276 0.2021,0.0167 0.2319,0.0161 0.4445,-0.008 z m -0.58974,-1.13179 c -0.50054,-0.12135 -0.94297,-0.58742 -1.03393,-1.08917 -0.04,-0.22047 -0.0337,-0.38784 0.0229,-0.60912 0.0693,-0.27095 0.1609,-0.4292 0.36885,-0.63723 0.20577,-0.20584 0.4202,-0.32489 0.6858,-0.38076 0.24082,-0.0507 0.39975,-0.0477 0.63283,0.012 0.27134,0.0694 0.42906,0.16024 0.63971,0.36842 0.44599,0.44077 0.54287,1.08085 0.24841,1.64119 -0.12923,0.24593 -0.34703,0.45627 -0.60238,0.58176 -0.3132,0.15391 -0.63662,0.19188 -0.96221,0.11294 z m 0.60555,-0.81966 c 0.26102,-0.13422 0.38567,-0.41886 0.30464,-0.69571 -0.0793,-0.27105 -0.2933,-0.43111 -0.5745,-0.42977 -0.38009,0.002 -0.65886,0.33954 -0.58308,0.70638 0.0807,0.39085 0.5037,0.59868 0.85294,0.4191 z M 107.4362,8.61069 c -0.61228,-0.076 -1.04117,-0.46509 -1.20415,-1.09233 -0.0635,-0.24454 -0.0572,-0.7631 0.0126,-1.02397 0.14587,-0.54544 0.52159,-0.91183 1.05048,-1.02439 0.4052,-0.0862 0.92461,-0.0116 1.25119,0.1798 l 0.11485,0.0673 v 0.21477 0.21478 l -0.15304,-0.11266 c -0.37765,-0.27801 -0.90225,-0.34271 -1.30048,-0.16039 -0.39359,0.18019 -0.57732,0.54985 -0.5781,1.16317 -5.7e-4,0.44678 0.0832,0.71323 0.29565,0.94036 0.19724,0.21086 0.43042,0.30239 0.77179,0.30292 0.31084,4.9e-4 0.59428,-0.092 0.8275,-0.27001 0.0615,-0.0469 0.1178,-0.0853 0.12523,-0.0853 0.007,0 0.0102,0.0943 0.006,0.20955 l -0.007,0.20955 -0.1778,0.0941 c -0.28541,0.15105 -0.67934,0.21682 -1.03449,0.17272 z m 4.95508,-0.008 c -0.4295,-0.0962 -0.65343,-0.51632 -0.51772,-0.97122 0.10999,-0.36865 0.44098,-0.51789 1.15008,-0.51858 l 0.38735,-3.8e-4 -5.6e-4,-0.0825 c -0.001,-0.1943 -0.1755,-0.41185 -0.37846,-0.47265 -0.12392,-0.0371 -0.44325,-0.0373 -0.61668,-2.9e-4 -0.074,0.0158 -0.1946,0.0552 -0.26795,0.0875 l -0.13335,0.0588 V 6.52799 6.35261 l 0.15875,-0.0487 c 0.71062,-0.21815 1.29509,-0.0771 1.50317,0.36275 0.0965,0.20395 0.11568,0.3988 0.11589,1.17619 l 1.9e-4,0.71755 h -0.1905 -0.1905 v -0.15999 -0.16 l -0.15002,0.1459 c -0.11493,0.11176 -0.18178,0.15489 -0.28575,0.18435 -0.19907,0.0564 -0.42108,0.0686 -0.58394,0.0321 z m 0.5431,-0.32657 c 0.1429,-0.0428 0.3314,-0.22141 0.39863,-0.37769 0.0308,-0.0715 0.0625,-0.20871 0.0706,-0.30495 0.0128,-0.15265 0.009,-0.17719 -0.0307,-0.19239 -0.025,-0.01 -0.22031,-0.005 -0.43411,0.009 -0.4667,0.0319 -0.58938,0.0761 -0.67435,0.24266 -0.0669,0.13115 -0.0573,0.3643 0.0194,0.46956 0.11669,0.16017 0.403,0.22778 0.65055,0.15361 z m 8.09659,0.33394 c -0.59881,-0.0824 -1.02831,-0.46851 -1.18561,-1.06575 -0.0602,-0.22864 -0.0601,-0.78535 1.5e-4,-1.02706 0.101,-0.40495 0.36995,-0.76075 0.6976,-0.92287 0.46715,-0.23115 1.17098,-0.20579 1.62184,0.0584 l 0.11064,0.0648 v 0.21398 0.21398 l -0.16675,-0.11657 c -0.51185,-0.35781 -1.21374,-0.33954 -1.56954,0.0409 -0.22108,0.23635 -0.30293,0.49278 -0.30442,0.95372 -0.002,0.60842 0.18172,0.97295 0.58548,1.16189 0.13501,0.0632 0.20794,0.0796 0.39754,0.0895 0.12949,0.007 0.29471,-8.4e-4 0.37354,-0.0172 0.18149,-0.0377 0.43687,-0.15867 0.5766,-0.27316 l 0.1096,-0.0898 -0.007,0.22479 -0.007,0.22479 -0.1905,0.0949 c -0.31944,0.15908 -0.68771,0.21948 -1.04142,0.17078 z M 109.27079,6.96011 v -1.6002 h 0.1905 0.1905 l 8.5e-4,0.62865 8.6e-4,0.62865 0.0787,-0.0963 c 0.18207,-0.22291 0.46494,-0.3398 0.76205,-0.31489 0.40612,0.0341 0.6417,0.2733 0.7058,0.71679 0.0141,0.0974 0.0258,0.50563 0.0261,0.90726 l 5e-4,0.73025 h -0.18863 -0.18863 l -0.009,-0.81915 c -0.007,-0.72 -0.014,-0.8314 -0.0539,-0.9204 -0.0962,-0.21474 -0.26802,-0.30903 -0.5212,-0.28608 -0.25778,0.0234 -0.43349,0.14893 -0.54206,0.38733 -0.0552,0.12126 -0.0583,0.16119 -0.0674,0.88265 l -0.01,0.75565 h -0.18799 -0.18799 z m 5.2832,0.4445 v -1.1557 h 0.1905 0.1905 v 0.18055 0.18055 l 0.11551,-0.12847 c 0.0674,-0.075 0.17577,-0.15807 0.26035,-0.1996 0.12847,-0.0631 0.17212,-0.071 0.38614,-0.0701 0.29066,0.001 0.4281,0.0563 0.58485,0.23437 0.18641,0.21177 0.20255,0.31367 0.20255,1.27861 v 0.83552 h -0.17564 -0.17565 l -0.008,-0.80645 -0.009,-0.80645 -0.0762,-0.1524 c -0.0617,-0.12347 -0.0977,-0.16325 -0.18953,-0.20955 -0.20838,-0.10508 -0.52621,-0.0553 -0.69527,0.10889 -0.19746,0.19176 -0.2201,0.31329 -0.2201,1.18141 v 0.68455 h -0.1905 -0.1905 z m 2.7686,0.9017 v -0.254 h 0.2159 0.2159 v 0.254 0.254 h -0.2159 -0.2159 z"
       id="path1" /></g></svg>
